<svg xmlns="http://www.w3.org/2000/svg" xmlns:xlink="http://www.w3.org/1999/xlink" width="500" zoomAndPan="magnify" viewBox="0 0 375 374.999991" height="500" preserveAspectRatio="xMidYMid meet" version="1.0"><defs><clipPath id="fd36b1343c"><path d="M 4 4 L 371 4 L 371 371 L 4 371 Z M 4 4 " clip-rule="nonzero"/></clipPath><clipPath id="8cfdc59046"><path d="M 196.59375 7.691406 C 202.082031 12.335938 209.851562 13.148438 216.183594 9.746094 L 216.21875 9.730469 C 222.265625 6.476562 229.78125 8.074219 233.984375 13.503906 C 238.382812 19.175781 245.804688 21.582031 252.695312 19.570312 L 252.773438 19.546875 C 259.359375 17.621094 266.367188 20.738281 269.34375 26.917969 C 272.460938 33.375 279.210938 37.265625 286.359375 36.71875 L 286.472656 36.710938 C 293.304688 36.191406 299.507812 40.695312 301.128906 47.347656 C 302.824219 54.308594 308.613281 59.511719 315.714844 60.457031 L 315.835938 60.472656 C 322.621094 61.375 327.75 67.066406 327.945312 73.90625 C 328.148438 81.0625 332.726562 87.351562 339.472656 89.742188 L 339.582031 89.78125 C 346.03125 92.066406 349.863281 98.699219 348.621094 105.429688 C 347.328125 112.464844 350.496094 119.574219 356.597656 123.3125 L 356.671875 123.355469 C 362.507812 126.929688 364.878906 134.214844 362.257812 140.539062 C 359.519531 147.152344 361.144531 154.769531 366.339844 159.691406 L 366.367188 159.71875 C 371.335938 164.429688 372.140625 172.058594 368.257812 177.699219 C 364.199219 183.601562 364.199219 191.398438 368.257812 197.300781 C 372.140625 202.941406 371.335938 210.570312 366.367188 215.28125 L 366.339844 215.308594 C 361.144531 220.230469 359.519531 227.847656 362.257812 234.460938 C 364.878906 240.785156 362.507812 248.070312 356.671875 251.644531 L 356.597656 251.6875 C 350.496094 255.425781 347.328125 262.535156 348.621094 269.570312 C 349.863281 276.300781 346.03125 282.933594 339.582031 285.21875 L 339.472656 285.257812 C 332.726562 287.648438 328.148438 293.9375 327.945312 301.09375 C 327.75 307.933594 322.621094 313.625 315.835938 314.527344 L 315.714844 314.542969 C 308.613281 315.488281 302.824219 320.691406 301.128906 327.648438 C 299.507812 334.304688 293.304688 338.808594 286.472656 338.289062 L 286.359375 338.28125 C 279.210938 337.734375 272.460938 341.625 269.34375 348.082031 C 266.367188 354.261719 259.359375 357.378906 252.773438 355.453125 L 252.695312 355.429688 C 245.804688 353.417969 238.382812 355.824219 233.984375 361.496094 C 229.78125 366.925781 222.265625 368.519531 216.21875 365.269531 L 216.183594 365.253906 C 209.851562 361.851562 202.082031 362.664062 196.59375 367.308594 C 191.34375 371.746094 183.65625 371.746094 178.40625 367.308594 C 172.917969 362.664062 165.148438 361.851562 158.816406 365.253906 L 158.78125 365.269531 C 152.734375 368.519531 145.21875 366.925781 141.015625 361.496094 C 136.617188 355.824219 129.195312 353.417969 122.304688 355.429688 L 122.226562 355.453125 C 115.640625 357.378906 108.632812 354.261719 105.65625 348.082031 C 102.539062 341.625 95.789062 337.734375 88.640625 338.28125 L 88.527344 338.289062 C 81.695312 338.808594 75.492188 334.304688 73.871094 327.648438 C 72.175781 320.691406 66.386719 315.488281 59.285156 314.542969 L 59.164062 314.527344 C 52.378906 313.625 47.25 307.933594 47.054688 301.09375 C 46.851562 293.9375 42.273438 287.648438 35.527344 285.257812 L 35.417969 285.21875 C 28.96875 282.933594 25.136719 276.300781 26.378906 269.570312 C 27.671875 262.535156 24.503906 255.425781 18.402344 251.691406 L 18.328125 251.644531 C 12.492188 248.070312 10.121094 240.785156 12.742188 234.460938 C 15.480469 227.847656 13.855469 220.230469 8.660156 215.308594 L 8.632812 215.28125 C 3.664062 210.570312 2.859375 202.941406 6.742188 197.300781 C 10.804688 191.398438 10.804688 183.601562 6.742188 177.699219 C 2.859375 172.058594 3.664062 164.429688 8.632812 159.71875 L 8.660156 159.691406 C 13.855469 154.769531 15.480469 147.152344 12.742188 140.539062 C 10.121094 134.214844 12.492188 126.929688 18.328125 123.355469 L 18.402344 123.308594 C 24.503906 119.574219 27.671875 112.464844 26.378906 105.429688 C 25.136719 98.699219 28.96875 92.066406 35.417969 89.78125 L 35.527344 89.742188 C 42.273438 87.351562 46.851562 81.0625 47.054688 73.90625 C 47.25 67.066406 52.378906 61.375 59.164062 60.472656 L 59.285156 60.457031 C 66.386719 59.511719 72.175781 54.308594 73.871094 47.347656 C 75.492188 40.695312 81.695312 36.191406 88.527344 36.710938 L 88.640625 36.71875 C 95.789062 37.265625 102.539062 33.375 105.65625 26.917969 C 108.632812 20.738281 115.640625 17.621094 122.226562 19.546875 L 122.304688 19.570312 C 129.195312 21.582031 136.617188 19.175781 141.015625 13.503906 C 145.21875 8.074219 152.734375 6.476562 158.78125 9.730469 L 158.816406 9.746094 C 165.148438 13.148438 172.917969 12.335938 178.40625 7.691406 C 183.65625 3.253906 191.34375 3.253906 196.59375 7.691406 Z M 196.59375 7.691406 " clip-rule="nonzero"/></clipPath></defs><g clip-path="url(#fd36b1343c)"><g clip-path="url(#8cfdc59046)"><rect x="-37.5" width="450" fill="#ffffff" y="-37.499999" height="449.999989" fill-opacity="1"/><path stroke-linecap="butt" transform="matrix(0.75, 0, 0, 0.75, 0.0000045, -0.000000000000021316)" fill="none" stroke-linejoin="miter" d="M 262.124994 10.255208 C 269.442703 16.447917 279.802078 17.53125 288.244786 12.994792 L 288.291661 12.973958 C 296.354161 8.635417 306.374995 10.765625 311.979161 18.005208 C 317.843745 25.567708 327.739578 28.776042 336.927078 26.09375 L 337.031245 26.0625 C 345.812495 23.494792 355.156245 27.651042 359.124995 35.890625 C 363.281245 44.5 372.281245 49.6875 381.812495 48.958333 L 381.963536 48.947917 C 391.072911 48.255208 399.343745 54.260417 401.505203 63.130208 C 403.76562 72.411458 411.48437 79.348958 420.95312 80.609375 L 421.114578 80.630208 C 430.161453 81.833333 436.999995 89.421875 437.260411 98.541667 C 437.531245 108.083334 443.635411 116.46875 452.630203 119.65625 L 452.776036 119.708334 C 461.374995 122.755209 466.48437 131.598959 464.82812 140.572917 C 463.104161 149.953125 467.32812 159.432292 475.463536 164.416667 L 475.562495 164.473959 C 483.343745 169.239584 486.505203 178.953125 483.010411 187.385417 C 479.35937 196.203125 481.526036 206.359375 488.45312 212.921875 L 488.489578 212.958334 C 495.114578 219.239584 496.187495 229.411459 491.010411 236.932292 C 485.598953 244.802084 485.598953 255.197917 491.010411 263.067709 C 496.187495 270.588542 495.114578 280.760417 488.489578 287.041667 L 488.45312 287.078125 C 481.526036 293.640625 479.35937 303.796876 483.010411 312.614584 C 486.505203 321.046876 483.343745 330.760417 475.562495 335.526042 L 475.463536 335.583334 C 467.32812 340.567709 463.104161 350.046876 464.82812 359.427084 C 466.48437 368.401042 461.374995 377.244792 452.776036 380.291667 L 452.630203 380.343751 C 443.635411 383.531251 437.531245 391.916667 437.260411 401.458334 C 436.999995 410.578126 430.161453 418.166667 421.114578 419.369792 L 420.95312 419.390626 C 411.48437 420.651042 403.76562 427.588542 401.505203 436.869792 C 399.343745 445.739584 391.072911 451.744792 381.963536 451.052084 L 381.812495 451.041667 C 372.281245 450.312501 363.281245 455.500001 359.124995 464.109376 C 355.156245 472.348959 345.812495 476.505209 337.031245 473.937501 L 336.927078 473.906251 C 327.739578 471.223959 317.843745 474.432292 311.979161 481.994792 C 306.374995 489.234376 296.354161 491.359376 288.291661 487.026042 L 288.244786 487.005209 C 279.802078 482.468751 269.442703 483.552084 262.124994 489.744792 C 255.124994 495.661459 244.874994 495.661459 237.874994 489.744792 C 230.557286 483.552084 220.197911 482.468751 211.755203 487.005209 L 211.708328 487.026042 C 203.645828 491.359376 193.624994 489.234376 188.020828 481.994792 C 182.156244 474.432292 172.260411 471.223959 163.072911 473.906251 L 162.968744 473.937501 C 154.187494 476.505209 144.843744 472.348959 140.874994 464.109376 C 136.718744 455.500001 127.718744 450.312501 118.187494 451.041667 L 118.036453 451.052084 C 108.927078 451.744792 100.656244 445.739584 98.494786 436.869792 C 96.234369 427.588542 88.515619 420.651042 79.046869 419.390626 L 78.885411 419.369792 C 69.838536 418.166667 62.999994 410.578126 62.739577 401.458334 C 62.468744 391.916667 56.364577 383.531251 47.369786 380.343751 L 47.223952 380.291667 C 38.624994 377.244792 33.515619 368.401042 35.171869 359.427084 C 36.895827 350.046876 32.671869 340.567709 24.536452 335.588542 L 24.437494 335.526042 C 16.656244 330.760417 13.494786 321.046876 16.989577 312.614584 C 20.640619 303.796876 18.473952 293.640625 11.546869 287.078125 L 11.510411 287.041667 C 4.885411 280.760417 3.812494 270.588542 8.989577 263.067709 C 14.406244 255.197917 14.406244 244.802084 8.989577 236.932292 C 3.812494 229.411459 4.885411 219.239584 11.510411 212.958334 L 11.546869 212.921875 C 18.473952 206.359375 20.640619 196.203125 16.989577 187.385417 C 13.494786 178.953125 16.656244 169.239584 24.437494 164.473959 L 24.536452 164.411459 C 32.671869 159.432292 36.895827 149.953125 35.171869 140.572917 C 33.515619 131.598959 38.624994 122.755209 47.223952 119.708334 L 47.369786 119.65625 C 56.364577 116.46875 62.468744 108.083334 62.739577 98.541667 C 62.999994 89.421875 69.838536 81.833333 78.885411 80.630208 L 79.046869 80.609375 C 88.515619 79.348958 96.234369 72.411458 98.494786 63.130208 C 100.656244 54.260417 108.927078 48.255208 118.036453 48.947917 L 118.187494 48.958333 C 127.718744 49.6875 136.718744 44.5 140.874994 35.890625 C 144.843744 27.651042 154.187494 23.494792 162.968744 26.0625 L 163.072911 26.09375 C 172.260411 28.776042 182.156244 25.567708 188.020828 18.005208 C 193.624994 10.765625 203.645828 8.635417 211.708328 12.973958 L 211.755203 12.994792 C 220.197911 17.53125 230.557286 16.447917 237.874994 10.255208 C 244.874994 4.338542 255.124994 4.338542 262.124994 10.255208 Z M 262.124994 10.255208 " stroke="#5c4044" stroke-width="8" stroke-opacity="1" stroke-miterlimit="4"/></g></g><path stroke-linecap="round" transform="matrix(0.127683, -0.739051, 0.739051, 0.127683, 307.785042, 325.640076)" fill="none" stroke-linejoin="miter" d="M 2.004538 2.000597 C 5.111887 1.997586 8.21499 2.000594 11.323226 2.002716 " stroke="#fffaf2" stroke-width="4" stroke-opacity="1" stroke-miterlimit="4"/></svg>