<svg width="54" height="79" viewBox="0 0 54 79" fill="none" xmlns="http://www.w3.org/2000/svg">
<mask id="mask0_16_140" style="mask-type:luminance" maskUnits="userSpaceOnUse" x="0" y="60" width="44" height="19">
<path d="M0.666656 60H43.3333V78.6667H0.666656V60Z" fill="white"/>
</mask>
<g mask="url(#mask0_16_140)">
<mask id="mask1_16_140" style="mask-type:luminance" maskUnits="userSpaceOnUse" x="-23" y="-13" width="93" height="103">
<path d="M28.3125 89.6093L-22.0156 60.8854L19.5885 -12.0052L69.9167 16.7239L28.3125 89.6093Z" fill="white"/>
</mask>
<g mask="url(#mask1_16_140)">
<mask id="mask2_16_140" style="mask-type:luminance" maskUnits="userSpaceOnUse" x="-23" y="-13" width="93" height="103">
<path d="M28.3125 89.6093L-22.0156 60.8854L19.5885 -12.0052L69.9167 16.7239L28.3125 89.6093Z" fill="white"/>
</mask>
<g mask="url(#mask2_16_140)">
<mask id="mask3_16_140" style="mask-type:luminance" maskUnits="userSpaceOnUse" x="-23" y="-13" width="93" height="103">
<path d="M28.3125 89.6093L-22.0156 60.8854L19.5885 -12.0052L69.9167 16.7239L28.3125 89.6093Z" fill="white"/>
</mask>
<g mask="url(#mask3_16_140)">
<path d="M42.3021 65.0729C41.2344 66.6458 39.8385 68.2812 38.0677 69.4895C30.099 74.9479 21.2865 77.8489 11.5937 77.8229C9.05729 77.8176 6.60937 77.1979 4.39062 75.8697C3.79166 75.5104 3.24479 75.0781 2.78645 74.5624C1.21354 72.802 1.09896 70.6145 2.48437 68.7031C3.3125 67.5572 4.39583 66.6926 5.59895 65.9895C8.95312 64.0104 12.651 63.0676 16.4427 62.4114C19.5052 61.8801 22.6042 61.6354 25.7083 61.4635C29.8802 61.2239 34.0625 60.9635 38.2396 60.9166C39.0365 60.9114 39.8333 60.8541 40.625 60.9687C43.1615 61.3437 43.6719 62.6822 42.3021 65.0729Z" fill="#7AD7F4"/>
</g>
</g>
</g>
</g>
<mask id="mask4_16_140" style="mask-type:luminance" maskUnits="userSpaceOnUse" x="3" y="14" width="42" height="29">
<path d="M3.33333 14.6666H44.6667V42.6666H3.33333V14.6666Z" fill="white"/>
</mask>
<g mask="url(#mask4_16_140)">
<mask id="mask5_16_140" style="mask-type:luminance" maskUnits="userSpaceOnUse" x="-23" y="-13" width="93" height="103">
<path d="M28.3125 89.6093L-22.0156 60.8854L19.5885 -12.0052L69.9167 16.7239L28.3125 89.6093Z" fill="white"/>
</mask>
<g mask="url(#mask5_16_140)">
<mask id="mask6_16_140" style="mask-type:luminance" maskUnits="userSpaceOnUse" x="-23" y="-13" width="93" height="103">
<path d="M28.3125 89.6093L-22.0156 60.8854L19.5885 -12.0052L69.9167 16.7239L28.3125 89.6093Z" fill="white"/>
</mask>
<g mask="url(#mask6_16_140)">
<mask id="mask7_16_140" style="mask-type:luminance" maskUnits="userSpaceOnUse" x="-23" y="-13" width="93" height="103">
<path d="M28.3125 89.6093L-22.0156 60.8854L19.5885 -12.0052L69.9167 16.7239L28.3125 89.6093Z" fill="white"/>
</mask>
<g mask="url(#mask7_16_140)">
<path d="M19.8125 19.8489C27.0521 24.177 33.5729 29.4479 39.7188 35.1823C41.0833 36.4531 42.375 37.8333 43.474 39.3593C44.3854 40.6093 44.0417 41.3333 42.4792 41.4583C41.0573 41.5677 39.6458 41.3802 38.276 41.0625C29.224 38.9791 20.75 35.552 13.1302 30.1823C10.4115 28.2656 7.93229 26.0781 5.89063 23.427C5.03646 22.3281 4.27084 21.177 3.84375 19.8333C2.97917 17.1406 4.30208 15.2135 7.13021 15.0833C9.07292 15 10.8958 15.552 12.6771 16.2343C13.7813 16.6562 14.875 17.1093 15.9219 17.651C17.25 18.3281 18.5208 19.1093 19.8125 19.8489Z" fill="#7AD7F4"/>
</g>
</g>
</g>
</g>
<mask id="mask8_16_140" style="mask-type:luminance" maskUnits="userSpaceOnUse" x="36" y="0" width="18" height="32">
<path d="M36.6667 0H54V32H36.6667V0Z" fill="white"/>
</mask>
<g mask="url(#mask8_16_140)">
<mask id="mask9_16_140" style="mask-type:luminance" maskUnits="userSpaceOnUse" x="-23" y="-13" width="93" height="103">
<path d="M28.3125 89.6093L-22.0156 60.8854L19.5885 -12.0052L69.9167 16.7239L28.3125 89.6093Z" fill="white"/>
</mask>
<g mask="url(#mask9_16_140)">
<mask id="mask10_16_140" style="mask-type:luminance" maskUnits="userSpaceOnUse" x="-23" y="-13" width="93" height="103">
<path d="M28.3125 89.6093L-22.0156 60.8854L19.5885 -12.0052L69.9167 16.7239L28.3125 89.6093Z" fill="white"/>
</mask>
<g mask="url(#mask10_16_140)">
<mask id="mask11_16_140" style="mask-type:luminance" maskUnits="userSpaceOnUse" x="-23" y="-13" width="93" height="103">
<path d="M28.3125 89.6093L-22.0156 60.8854L19.5885 -12.0052L69.9167 16.7239L28.3125 89.6093Z" fill="white"/>
</mask>
<g mask="url(#mask11_16_140)">
<path d="M51.5781 31.0937C49.5 29.7604 47.9219 27.9271 46.6198 25.8854C43.401 20.8594 40.4844 15.6667 38.8125 9.88019C38.2344 7.87499 37.8906 5.8229 37.8854 3.72915C37.8802 3.05728 37.9219 2.39582 38.1406 1.74998C38.625 0.32811 39.9427 -0.218764 41.2917 0.447903C41.9948 0.791652 42.5417 1.33853 43.0521 1.91665C44.5417 3.60936 45.6771 5.53644 46.6198 7.56248C49.6615 14.1042 52.2448 20.7969 53.349 27.9792C53.4427 28.5885 53.5104 29.1979 53.599 29.8073C53.6823 30.4114 53.75 31.0156 53.1302 31.3906C52.5365 31.7656 52.0573 31.3958 51.5781 31.0937Z" fill="#7AD7F4"/>
</g>
</g>
</g>
</g>
<mask id="mask12_16_140" style="mask-type:luminance" maskUnits="userSpaceOnUse" x="19" y="45" width="23" height="11">
<path d="M19.3333 45.3334H42V56H19.3333V45.3334Z" fill="white"/>
</mask>
<g mask="url(#mask12_16_140)">
<mask id="mask13_16_140" style="mask-type:luminance" maskUnits="userSpaceOnUse" x="-23" y="-13" width="93" height="103">
<path d="M28.3125 89.6095L-22.0156 60.8855L19.5885 -12.0051L69.9167 16.724L28.3125 89.6095Z" fill="white"/>
</mask>
<g mask="url(#mask13_16_140)">
<mask id="mask14_16_140" style="mask-type:luminance" maskUnits="userSpaceOnUse" x="-23" y="-13" width="93" height="103">
<path d="M28.3125 89.6095L-22.0156 60.8855L19.5885 -12.0051L69.9167 16.724L28.3125 89.6095Z" fill="white"/>
</mask>
<g mask="url(#mask14_16_140)">
<mask id="mask15_16_140" style="mask-type:luminance" maskUnits="userSpaceOnUse" x="-23" y="-13" width="93" height="103">
<path d="M28.3125 89.6095L-22.0156 60.8855L19.5885 -12.0051L69.9167 16.724L28.3125 89.6095Z" fill="white"/>
</mask>
<g mask="url(#mask15_16_140)">
<path d="M22.8385 53.0262C22.0937 52.6095 21.0365 51.8491 20.2448 50.7657C18.849 48.8334 19.6094 46.9689 21.9687 46.573C23.3594 46.3387 24.7344 46.5418 26.1042 46.7814C29.4531 47.3595 32.651 48.4949 35.8594 49.5887C37.1458 50.0262 38.4479 50.4376 39.6875 51.0001C40.3125 51.2918 40.8646 51.6251 40.8854 52.4376C40.9062 53.323 40.5729 53.948 39.75 54.3543C38.2604 55.0834 36.6615 55.2918 35.0521 55.4272C30.6823 55.7762 26.349 54.9741 22.8385 53.0262Z" fill="#0B9FB7"/>
</g>
</g>
</g>
</g>
<mask id="mask16_16_140" style="mask-type:luminance" maskUnits="userSpaceOnUse" x="36" y="24" width="13" height="14">
<path d="M36.6667 24H48.6667V37.3333H36.6667V24Z" fill="white"/>
</mask>
<g mask="url(#mask16_16_140)">
<mask id="mask17_16_140" style="mask-type:luminance" maskUnits="userSpaceOnUse" x="-23" y="-13" width="93" height="103">
<path d="M28.3125 89.6093L-22.0156 60.8854L19.5885 -12.0052L69.9167 16.7239L28.3125 89.6093Z" fill="white"/>
</mask>
<g mask="url(#mask17_16_140)">
<mask id="mask18_16_140" style="mask-type:luminance" maskUnits="userSpaceOnUse" x="-23" y="-13" width="93" height="103">
<path d="M28.3125 89.6093L-22.0156 60.8854L19.5885 -12.0052L69.9167 16.7239L28.3125 89.6093Z" fill="white"/>
</mask>
<g mask="url(#mask18_16_140)">
<mask id="mask19_16_140" style="mask-type:luminance" maskUnits="userSpaceOnUse" x="-23" y="-13" width="93" height="103">
<path d="M28.3125 89.6093L-22.0156 60.8854L19.5885 -12.0052L69.9167 16.7239L28.3125 89.6093Z" fill="white"/>
</mask>
<g mask="url(#mask19_16_140)">
<path d="M44.8021 36.4218C41.7917 34.5 39.3646 32.0573 37.8333 28.7916C37.4792 28.0468 37.2292 27.2604 37.1615 26.4323C37.1146 25.7864 37.2448 25.1823 37.8281 24.8073C38.3906 24.4479 38.9635 24.5833 39.5156 24.875C40.3021 25.2916 40.9323 25.901 41.474 26.5833C43.6198 29.2864 45.4167 32.2187 47.1615 35.1875C47.3021 35.4218 47.3906 35.7187 47.4063 35.9896C47.474 36.8593 46.7448 37.3958 45.9427 37.0573C45.5469 36.8958 45.1823 36.6406 44.8021 36.4218Z" fill="#0B9FB7"/>
</g>
</g>
</g>
</g>
</svg>
