<svg width="291" height="79" viewBox="0 0 291 79" fill="none" xmlns="http://www.w3.org/2000/svg">
<g clip-path="url(#clip0_8_1030)">
<path d="M167.375 30.5866L152.54 31.3082L149.142 31.1528L164.568 30.5866H167.375ZM119.987 32.6514L133.875 31.9077L139.896 31.7855L124.924 32.6514H119.987ZM92.6429 45.8062L96.2872 46.2502L84.6525 46.6832L94.8098 46.0282L92.6429 45.8062ZM220.661 48.9256L223.234 48.6148L234.142 48.3928L224.33 48.9034L220.661 48.9256ZM217.115 40.7885L205.604 39.8671L219.479 40.3223L222.2 40.5887L217.115 40.7885ZM262.767 43.3418L258.581 42.6868L247.316 41.8764L261.278 42.6535L270.979 42.7201L259.726 41.4324L274.106 42.3538L277.849 42.7423L278.132 49.6028L273.651 49.3696L260.502 49.0477L255.109 49.3474L239.88 49.2364L228.737 49.3474L241.529 49.0144L239.806 48.6592L250.48 48.6814L252.684 48.1596L261.093 47.982L275.559 48.0264L271.89 43.8302L262.767 43.3418ZM23.032 44.3853L15.7188 43.808L24.1031 43.1863L30.9608 43.697L33.3862 42.931L40.7487 42.6091L54.5502 42.0429L45.6734 42.7423L59.9058 42.4426L70.6171 42.2095L57.0987 42.9532L51.7062 43.1975L42.7062 43.7969L28.9909 44.0522L23.032 44.3853ZM182.039 36.226L168.496 35.4045L183.541 35.6931L188.269 36.1261L182.039 36.226ZM270.548 42.2428L275.596 50.0246L272.838 42.376L264.331 42.0873L270.548 42.2428ZM28.4123 48.9256L18.9814 49.5917L16.6422 39.9115L18.7229 40.2668L16.2728 49.4363L28.4123 48.9256ZM17.6887 39.3787L17.0854 50.7351L25.6544 50.2799L36.7104 50.2133L32.5736 50.6685L18.2181 51.2679L18.3289 38.5017L22.1579 38.3019L17.6887 39.3787ZM21.8747 51.6232L11.6928 38.1576L11.582 38.3019L23.7707 37.9799L12.9733 51.7564L26.4301 51.2346L31.5271 51.2679L17.504 52.0006L21.8747 51.6232ZM69.3982 47.7822L71.3312 47.1938L57.702 47.8599L54.9072 47.7933L47.3478 48.0042L65.9879 46.7498L73.2395 46.8386L82.9781 46.2724L81.0206 47.0939L72.0822 47.7933L69.3982 47.7822ZM41.8937 49.0699L33.5216 49.7915L30.4191 49.4363L26.8117 50.0357L14.2537 49.7027L28.6708 49.0144L41.8937 49.0699ZM74.68 49.6472L63.624 49.8137L65.6554 48.6481L71.8606 47.9265L78.5089 47.8266L85.9699 47.5935L88.383 47.0606L88.5554 46.4945L92.6429 46.4834L103.834 45.8173L95.5608 46.6166L97.5307 46.8719L95.61 47.1494L105.706 46.8275H117.611L129.751 46.2391L144.894 46.1281L137.581 46.6055L143.663 47.2826L150.816 47.6823L165.455 47.7378L179.86 47.8932L193.932 48.1818L207.82 48.526L221.634 48.97L235.669 49.4696L249.901 49.958L258.113 50.0579L257.633 49.8359L272.567 50.3687L273.503 41.7987L258.409 41.6322L246.553 41.3658L238.525 41.4435L224.268 41.5101L210.578 41.7654L196.936 42.2983L181.793 42.6757L167.499 43.2308L157.329 43.6304L141.422 44.2299L133.21 44.4297L133.752 44.6184L119.446 44.9847L105.312 45.4843L113.351 45.7174L98.8727 46.006L85.1327 46.1947L77.13 46.772L62.2574 46.994L68.2655 47.3826L61.494 47.6823L47.9018 47.8377L54.9195 47.982L70.5309 47.7156L83.3721 47.649L70.3216 48.204L55.3135 48.5704L55.8552 49.2919L65.5569 49.5806L61.5433 50.0579L74.8277 49.8914L88.2106 49.3918L102.689 48.9034L110.877 48.8701L99.242 49.6805L110.926 49.7693L113.561 49.4474L121.748 48.9034L132.829 48.5926L147.689 48.1818L158.043 47.8821L172.78 47.5713H183.332L196.813 47.5158L180.34 47.8932L166.649 48.2706L167.043 48.3706L157.698 48.9145L153.66 49.1698L166.748 48.8146L178.505 48.8479L189.82 48.5482L179.552 49.1143L164.827 49.5917L158.191 49.6361L169.419 49.7804L184.218 49.303L184.624 49.7138L187.456 49.9025L171.475 50.1356L166.07 50.7018L179.921 50.5575L194.437 50.4576L189.327 50.724L202.6 51.1458L218.765 50.7906L233.157 50.3465L240.975 49.625L243.167 49.8803L245.395 50.0912L253.804 49.7693L252.081 49.5584L266.756 49.3474L280.866 42.7201L278.034 41.9874L273.786 41.5545L268.788 41.4102L258.852 40.9439L266.276 40.6553L259.849 40.0558L246.713 38.9346L230.707 38.202L227.432 38.3685L217.337 38.313L205.087 37.436L218.1 37.6913L201.639 36.7033L186.385 36.2815L175.44 36.0373L160.739 35.7375L146.692 36.1039L148.255 36.6589L155.926 36.8698L142.961 37.0253L136.941 37.5692L141.151 37.8911L130.92 37.8245L128.298 38.5239L118.904 39.2899L129.886 39.2566L144.032 38.7681L149.154 38.8569L133.592 39.2899L118.19 39.9781L102.652 40.7663L97.3337 41.3769L85.2681 42.1428L74.877 42.2428L80.6758 41.5656L95.1052 40.511L88.8509 40.6442L88.6046 40.3112L79.4693 40.2224L86.2531 39.9337L100.953 39.0234L111.578 39.0345L112.305 38.3574L98.9588 38.9013L99.082 38.0021L88.0998 38.1354L72.4023 38.6349L63.8702 39.1789L50.3642 39.9004L45.1317 40.3556L31.1824 40.6664L16.7776 40.511L19.7447 50.1467L13.5765 50.1245L21.7393 39.9892L12.8748 39.7783L23.5245 50.5575L37.2275 50.5797L44.6269 50.6685L57.505 50.2355L71.7005 49.958L86.5486 49.4918L101.421 48.9367L115.715 48.3483L127.104 48.0375L141.742 47.4603L139.834 47.3493L138.738 47.105L135.02 47.2382L130.071 46.5278L119.015 47.105L106.641 47.4603L92.3843 48.1596L81.907 48.3261L70.5802 49.2031L64.6951 49.2586L57.505 49.4474L48.185 49.625L39.9361 49.403L46.3013 49.081L46.1289 48.2817L60.0289 47.8932L64.3258 48.0153L69.6814 48.0375L78.3243 47.6934L73.892 48.2706L82.5718 47.3382L94.108 46.9052L104.856 46.2947L116.429 45.8284L131.351 45.2623L142.038 44.7516L150.09 43.9745L151.863 43.2974L165.504 42.9421L178.21 42.3205L189.783 42.2317L204.212 42.6091L201.061 41.6988L187.111 41.4546L179.663 41.3769L187.751 40.6886L178.025 40.5776L181.325 39.8227L184.44 38.9013L192.959 38.9124L198.795 38.7681L212.954 38.8125L221.56 39.079L226.041 39.5119L237.91 39.2677L224.921 38.9124L231.865 38.2575L243.549 37.2695L237.947 35.0271L239.313 34.9272L233.945 33.8614L220.316 32.929L215.613 32.3295L217.854 32.0853L211.329 31.7744L197.379 31.5413L182.925 30.9308L168.397 30.4645L167.449 30.298L163.35 30.0094L159.188 30.6199L144.045 30.6643L142.395 29.8207L137.039 30.6199L143.934 31.2083L146.458 31.4636L139.772 31.6856L146.175 32.1741L149.61 33.04L158.843 32.8735L156.615 33.6949L157.12 33.7837L160.776 34.7495L158.08 35.0826L167.08 36.2482L167.092 36.4036L160.198 36.3481L167.252 37.1696L180.327 37.7801L189.155 37.9355L199.743 38.2686L208.066 38.3907L206.392 37.547L200.605 36.9809L211.119 37.2029L221.769 37.8023L223.32 37.8911L230.794 38.2575L231.409 38.8236L240.471 36.0706L229.772 35.8263L224.638 35.4711L235.928 36.2149L235.337 37.6469L227.088 36.9253L229.87 36.1483L242.65 37.5137L232.837 37.3361L242.342 37.2362L239.375 37.4582L237.479 36.9253L222.261 36.8809L209.777 36.781L220.242 37.0919L213.508 37.7468L207.475 38.0355L197.859 37.8467L193.747 37.103L188.736 36.6034L190.386 36.8809L184.378 37.2806L178.542 36.7699L179.897 36.1705L189.143 36.0817L202.046 35.7597L199.386 35.0493L192.295 35.6043L184.624 35.9929L184.612 34.8383L177.767 34.6829L171.069 34.7606L164.445 34.8605L153.734 34.7273L143.429 34.9494L132.669 35.1603L133.924 34.5941L124.198 34.9605L116.552 35.3046L102.751 36.0817L107.269 35.5155L121.502 34.7051L124.432 34.1612L120.394 33.9392L106.137 34.472L92.4459 34.7939L82.2394 35.7375L84.1724 34.8716L77.1423 35.0382L91.0424 34.4276L104.807 33.5284L107.983 32.7846L93.9479 33.4063L79.2353 34.1279L64.2396 34.8161L49.2807 35.5488L34.6913 36.337L21.0621 37.0364L14.4876 37.5914L12.9979 52.6667H15.7188L30.6038 52.0561L45.4641 51.6454L60.0782 51.1014L74.4584 50.3798L88.4938 49.625L102.086 48.8701L102.64 48.7258L87.6443 49.514L73.2149 50.0579L74.68 49.6472ZM232.529 40.178L221.535 39.6673L223.887 39.6118L212.301 38.6349L218.211 38.313L233.441 39.3232L225.733 39.301L237.787 40.3556L226.829 39.9448L232.529 40.178ZM211.193 35.1048L221.301 35.2158L213.409 35.8596L211.649 34.9605L211.193 35.1048ZM142.998 34.8716L140.031 34.0502L143.922 33.6838L151.961 34.0835L147.652 34.3499L143.589 34.6163L142.998 34.8716ZM117.143 32.3739L129.554 31.7411L136.534 32.2518L126.291 31.9965L119.507 32.2296L117.143 32.3739ZM182.728 30.3979L179.909 29.6874L193.464 30.1981L196.148 30.4978L188.318 30.4645L181.029 30.2425L182.728 30.3979ZM279.77 43.5971L272.641 48.7813L269.428 48.2817L276.483 48.4372L279.77 43.5971ZM100.165 50.9016L87.0533 51.7009L73.4488 52.1893L58.3176 52.5557L59.4626 52.4002L74.1259 51.9007L88.6416 51.279L100.165 50.9016ZM205.973 41.2104L220.39 41.3436L222.742 41.6211L206.859 41.2548L205.973 41.2104ZM217.127 31.0418L231.594 32.0409L237.442 32.5959L239.88 41.5101L235.324 41.7654L242.01 41.499L239.806 32.3961L243.081 32.274L230.153 30.4756L223.862 29.3766L220.341 28.9992L206.071 28.2998L200.654 28.7661L197.773 29.1768L191.95 28.7994L189.697 28.3553L181.115 28.1444L169.715 28.0889L174.406 28.4663L189.426 29.0658L184.144 29.0214L187.887 29.4987L200.113 29.7207L212.141 30.3979L225.044 31.1639L214.049 30.7864L217.127 31.0418ZM137.347 29.2656L135.71 28.1111L142.678 28.2887L140.203 28.4552L137.347 29.2656ZM59.8812 32.4516L74.1259 31.4081L73.1656 31.6079L58.9209 32.8624L61.2601 32.1963L59.8812 32.4516ZM230.51 42.6757L225.389 42.5425L234.893 42.9532L237.602 42.4093L230.51 42.6757ZM55.7814 39.2899L44.0482 39.4564L35.8609 39.6895L46.0304 39.1678L54.8826 39.2677L55.7814 39.2899ZM118.645 34.4609L125.208 33.9614L136.017 34.2389L123.349 34.25L118.645 34.4609ZM146.815 49.5029L154.891 50.0357L144.414 49.9691L134.109 49.9247L126.747 49.9913L141.471 49.5806L146.815 49.5029ZM123.718 51.6343L137.285 50.9349L149.203 50.8239L144.648 50.8794L133.21 51.2568L123.718 51.6343ZM153.5 43.9856L167.806 43.5305L161.614 43.9745L154.288 43.6082L153.5 43.9856Z" fill="#444444"/>
<mask id="mask0_8_1030" style="mask-type:luminance" maskUnits="userSpaceOnUse" x="0" y="39" width="292" height="40">
<path d="M0 39.3454H291.022V79H0V39.3454Z" fill="white"/>
</mask>
<g mask="url(#mask0_8_1030)">
<path d="M212.414 45.6941L199.078 46.4695L194.915 46.4582L208.915 45.784L212.414 45.6941ZM109.283 57.3242L125.236 56.7961L138.597 56.5601L152.019 56.459L155.372 56.5039L141.79 56.7961L125.751 56.9871L111.42 57.2793L109.283 57.3242ZM219.353 56.3354L232.407 56.3466L240.819 56.7849L226.463 56.4702L219.353 56.3354ZM213.949 56.1331L201.08 56.2005L187.08 56.1331L171.926 56.1444L162.347 56.268L178.152 55.8634L193.822 55.796L207.416 55.9084L213.949 56.1331ZM101.952 56.8635L102.345 56.4702L131.192 55.5263L144.614 55.4814L137.258 55.7286L123.737 55.9533L109.394 56.3579L101.952 56.8635ZM23.0009 62.1897L36.7796 60.1447L49.6618 59.1671L40.0953 60.1784L24.9904 61.8639L23.0009 62.1897ZM142.723 54.2116L157.791 53.7846L172.491 53.5599L169.384 53.7397L153.051 54.0543L142.723 54.2116ZM156.293 53.3801L137.086 53.9981L129.472 53.8858L142.87 53.661L156.293 53.3801ZM107.859 49.2562L122.522 48.8292L132.641 48.773L118.469 49.1326L107.859 49.2562ZM76.691 55.3578L90.5065 54.3577L101.719 53.9195L89.5118 54.6049L76.691 55.3578ZM110.941 46.1436L95.652 46.6605L91.3907 46.7729L106.004 46.1886L110.941 46.1436ZM205.157 68.5722L190.678 69.6173L175.978 70.5612L184.206 69.8532L197.26 69.0217L205.157 68.5722ZM104.064 55.3241L115.215 55.2454L102.971 55.6275L105.145 55.1218L110.806 55.1892L104.064 55.3241ZM119.55 54.7959L127.225 54.9645L135.121 55.1892L120.704 55.2904H116.971L119.55 54.7959ZM174.345 56.1444L189.29 55.6836L190.506 55.9084L176.064 56.0882L174.345 56.1444ZM57.1405 69.3813L48.446 70.9432L46.0267 70.4825L52.2284 69.7858L57.1405 69.3813ZM39.4199 66.2125L25.6658 66.7631L19.2554 66.7182L33.6849 66.3249L39.4199 66.2125ZM171.201 53.5824L157.03 53.9307L155.765 53.7622L168.831 53.6048L171.201 53.5824ZM132.849 41.3343L119.181 41.8624L123.295 41.368L137.418 40.8174L132.849 41.3343ZM264.582 57.4703L264.471 46.3796L265.515 46.2672L262.04 58.2119L253.001 58.4816L245.4 58.2456L260.112 57.976L264.533 57.7512L264.582 57.4703ZM159.203 63.0325L149.035 63.5943L144.405 63.3808L158.81 63.0437L159.203 63.0325ZM78.2506 47.8067L91.8451 46.8291L98.0221 46.7729L81.7751 47.7392L68.2789 48.5595L62.765 48.7955L78.2506 47.8067ZM201.067 63.0887L187.645 63.2685L173.657 63.3808L163.489 63.2348L176.998 62.9089L192.729 62.7741L201.067 63.0887ZM181.038 62.6505H166.768L152.965 62.7853L150.3 62.6729L165.417 62.4482L181.038 62.6505ZM269.064 56.4477L268.561 55.9421L281.652 55.8971L269.334 56.0882L269.064 56.4477ZM135.342 58.2569L141.409 57.9647L153.935 57.9984L139.641 58.0996L135.342 58.2569ZM113.373 58.0434L99.7537 58.358L103.217 58.4816L96.7818 58.8075L81.8734 58.8749L74.8858 58.5715L93.2573 58.2007L110.229 57.9984L113.373 58.0434ZM168.954 58.8187L158.565 58.7738L141.139 58.7063L153.014 58.3355L168.193 58.2569L169.605 58.0546L168.954 58.8187ZM98.673 59.7289L86.8101 59.7963L70.4034 60.6391L81.0751 59.8525L93.7731 59.021L98.673 59.7289ZM49.3302 61.8526L34.8147 63.0437L29.1043 69.3588L34.7656 62.8302L49.3302 61.8526ZM159.179 61.0324L168.745 61.2796L181.664 61.2459L174.37 61.5717L160.333 61.6616L146.591 61.7852L136.583 61.8189L151.847 61.4481L157.288 61.111L159.179 61.0324ZM51.8968 67.8868L41.9496 68.5048L46.2355 67.8419L57.0791 66.9654L65.172 65.999L61.6352 66.8418L51.8968 67.8868ZM110.818 62.4707L96.5239 62.8977L86.0119 63.3921L67.5912 63.8753L79.1962 63.4033L93.2082 62.8302L106.336 62.5044L110.818 62.4707ZM57.2388 62.8864L49.2442 63.4483L63.3053 63.2685L78.5208 62.7853L94.7433 62.6392L84.2803 62.9763L70.4894 63.3247L56.3669 63.5719L44.3566 63.8303L38.5111 64.4146L49.674 64.7293L62.2738 64.6169L51.5529 65.0214L37.2094 65.1563L37.062 64.6506L26.6728 64.8866L30.3323 64.9877L21.5518 65.3473L10.6959 65.8305L1.92769 57.8074L1.46103 65.9541L5.73462 58.2793L16.6028 57.9422L20.3484 57.8186L29.4236 57.6726L42.2567 57.6501L57.3739 57.7287L72.3806 57.5827L85.9627 57.504L94.424 57.3804L81.0751 57.6501L68.5 58.1445L53.1862 57.9984L61.1931 58.4142L65.0123 58.8075L50.1284 59.0996L42.183 58.3355L44.1724 58.7063L41.9374 59.0434L38.4988 59.0772L25.2114 59.3356L11.1135 59.594L0.564559 64.0775L15.4976 63.7629L30.5288 63.4932L42.2075 63.1112L57.2388 62.8864ZM278.09 46.6717L274.529 46.638L268.426 46.1211L268.868 46.02L277.759 46.5257L278.139 50.7282L278.09 46.6717ZM123.713 53.1104L128.502 53.425L126.795 53.7509L114.552 53.8408L114.736 53.661L123.713 53.1104ZM78.8278 63.2685L81.64 63.6955L86.454 63.1898L85.754 63.7854L71.7297 65.0888L75.5612 63.8753L78.8278 63.2685ZM55.6915 65.2349L70.2683 64.1674L68.4754 64.7068L68.807 65.0439L59.437 66.19L43.9759 67.471L44.3075 67.0778L41.6549 67.2575L28.8096 68.1453L33.1568 68.3026L30.0131 68.8082L34.3358 64.0663L48.0162 62.6842L59.7931 61.8976L68.1438 61.4706L53.002 62.5606L51.7372 62.8864L65.9702 62.1111L79.0489 61.583L92.6433 60.92L101.952 60.7964L89.0697 61.5155L72.9209 62.3695L67.9842 62.4032L54.4389 62.9876L64.4106 62.7965L50.6565 63.8753L36.4848 64.9652L27.1272 67.7969L42.1216 66.6732L55.6915 65.2349ZM273.018 50.5147L259.67 51.2114L257.963 51.1103L268.696 50.5035L273.018 50.5147ZM242.833 51.6833L232.996 51.7732L249.415 51.3687L242.207 51.7732L242.833 51.6833ZM103.094 64.9203L102.775 64.3584L118.15 63.909L118.346 64.2011L103.389 64.8192L103.094 64.9203ZM228.87 49.1663L241.716 49.3236L258.282 48.8854L249.477 49.2113L233.279 49.5371L217.523 49.7394L205.734 49.6495L219.562 49.3573L228.87 49.1663ZM39.2602 56.0657L44.5163 56.4815L34.3235 56.8298L19.3659 56.9309L25.5184 56.6612L39.1988 56.0882L39.2602 56.0657ZM2.06277 67.3811L6.93811 56.5601L25.6044 56.3691L23.3939 56.4702L8.20299 56.7849L5.63638 67.3137L19.3291 67.2126L10.917 67.4486L5.01008 67.5834L2.06277 67.3811ZM43.7057 61.3358L46.3338 60.9874L61.0212 59.5491L76.5928 58.1445L89.9662 57.1107L104.126 55.605L108.817 55.7623L96.3888 56.7849L83.2488 57.8973L69.3719 59.1333L54.0582 60.4368L43.7057 61.3358ZM263.931 67.3025L277.55 67.2575L279.785 67.4036L265.798 67.4823L263.931 67.3025ZM62.5071 70.7859L48.8144 71.7972L40.2672 72.213L54.488 70.8421L62.5071 70.7859ZM98.0713 55.7623L85.5821 56.65L71.9262 57.5714L64.8158 58.1445L54.8195 58.8412L42.1339 59.9986L34.9498 60.5267L30.3815 73.2243L29.0675 73.5164L34.9621 60.0885L49.146 58.7738L63.8211 57.7175L78.9629 56.4253L94.5222 55.0769L97.8011 55.4364L101.743 55.0656L109.025 53.9757L98.0713 55.7623ZM58.0739 57.5377L72.6999 56.5601L81.0997 55.7623L95.6152 54.3802L88.5908 55.1443L92.0416 55.0094L105.857 53.7959L106.692 53.7509L91.71 55.1218L77.8331 56.3354L64.165 57.4591L50.3495 58.4142L38.7813 59.5603L30.0253 59.8637L46.1496 58.4254L60.665 57.1332L65.2088 56.9984L58.0739 57.5377ZM80.3137 68.325L66.6824 68.9094L56.0107 69.3813L68.5122 68.4824L84.6856 67.8194L80.3137 68.325ZM97.9362 67.7407L97.3713 67.5272L105.771 66.8643L90.7153 67.4935L77.084 67.6845L68.3772 67.9542L67.9105 67.6845L66.1053 68.4711L55.188 68.9094L49.2811 69.1453L61.4019 67.8756L84.1698 66.7968L92.7538 66.662L101.62 66.5047L111.076 66.5272L119.771 65.9878L130.492 65.8417L117.118 66.4373L122.534 64.8416L120.569 67.1002L105.218 67.7295L97.9362 67.7407ZM151.282 62.3246L137.491 63.01L136.03 63.5269L126.93 64.1L131.904 63.482L121.711 63.8416L119.992 64.3472L115.387 64.6281L101.448 65.2237L91.4767 65.9878L105.059 64.718L119.525 63.0887L134.507 62.7965L148.642 62.3471L151.282 62.3246ZM134.323 51.953L124.953 52.1216L121.515 51.9193L133.5 51.7395L134.323 51.953ZM109.639 70.0443L102.971 69.8083L88.91 70.3027L91.1574 69.9544L89.7574 69.3588L99.5572 68.4149L92.4468 68.3812L107.859 67.7857L121.244 67.471L117.155 67.7857L118.113 67.943L132.604 67.5497L135.33 67.3137L140.476 66.9654L132.727 66.8418L138.376 66.2575L143.362 65.6732H152.781L151.172 66.2013L164.177 65.4821L173.007 65.4934L175.008 65.8754L160.566 66.2238L151.368 66.7294L165.724 66.4597L153.935 66.8193L143.877 67.1789L159.707 66.9766L169.642 66.7744L178.287 66.7968L193.896 66.6508L200.711 67.1789L212.353 66.6957L225.223 66.5721L239.64 66.5384L254.61 66.471L270.28 66.4934L263.329 66.8305L249.305 67.1115L261.34 67.4261L260.431 67.9205L273.301 67.9879L272.81 68.4149L288.062 68.3363L283.825 51.5373L269.089 52.4137L254.573 52.2677L240.193 52.2002L226.033 52.2564L211.874 52.1103L197.948 52.1328L183.899 52.2115L170.268 52.3351L156.231 52.5373L142.391 52.7846L128.22 53.1217L114.146 53.5037L99.9502 53.8858L85.5943 54.2566L71.0788 54.5487L62.6299 55.0319L76.2858 54.7285L74.6279 54.9757L61.1194 55.3128L46.4688 55.4926L31.3148 55.6949L16.1976 55.8634L1.68208 56.1106L7.72406 68.1228L24.4623 67.943L40.0953 67.9992L50.1775 66.5047L46.9355 66.7069L62.0036 68.2576L77.1577 68.2127L91.4889 68.1228L105.489 68.134L119.402 67.9767L133.328 67.9093L147.279 67.8306L159.965 67.6958L177.035 67.6171L191.452 67.9205L203.192 68.0441L216.172 68.0554L232.432 68.4824L237.245 68.6846L251.859 69.1229L268.29 57.8299H252.08L240.303 58.6277L237.356 58.5715L221.232 59.5828L219.549 59.8637L227.323 59.5379L213.151 60.6953L198.746 61.7515L184.403 62.8527L170.354 63.8865L177.452 63.5831L189.769 62.9426L177.047 64.0663L162.445 64.9091L148.556 65.7181L134.949 66.5609L121.195 67.4486L107.355 68.4262L106.569 68.8082L92.4345 69.7296L77.2928 70.6511L62.6913 71.4489L74.6402 71.2354L89.8802 70.4151L82.8681 71.0556L67.714 71.932L53.9476 72.7748L40.7707 73.494L33.9182 74.067L49.4407 73.1793L65.2088 72.3253L80.8909 71.3702L95.6397 70.4376L108.915 69.6959L117.462 69.4262L104.629 70.4825L89.8311 71.3365L74.2226 72.1793L59.5475 73.1569L47.525 74.0895L50.3249 74.4716L63.772 73.7749L78.6068 73.1793L90.703 72.8984L76.4086 73.8648L70.0473 74.3367L83.347 73.7075L96.4502 72.9658L109.578 72.1568L122.915 71.1342L136.73 70.3814L151.258 69.4487L166.731 68.5273L183.494 67.4935L178.189 68.1003L161.819 69.0891L150.926 70.314L164.582 69.3701L174.48 69.4712L189.511 68.2014L194.46 67.7857L180.019 68.7296L191.759 67.7183L205.894 66.6283L218.8 65.7406L227.458 65.2462L242.01 64.2124L257.189 63.8191L265.552 63.1561L254.438 62.7853L245.142 62.7291L230.258 62.2235L216.111 61.7965L202.553 61.3133L195.529 60.9986L182.303 60.875L169.384 60.5379L179.331 60.493L195.185 60.6391L209.934 60.9537L223.7 61.302L236.46 61.6279H243.766L230.749 61.302L235.821 61.1223L250.779 61.538L264.348 61.7178L267.283 65.7968L251.982 61.4144L241.396 60.8076L225.984 60.6278L216.835 59.7738L210.265 59.6839L196.597 59.5379L182.671 59.3356L185.754 58.6839L199.471 59.0322L213.655 59.4143L228.293 59.7401L241.654 60.3244L257.385 60.9986L252.056 60.1896L242.305 59.639L226.819 59.0772L220.593 59.0884L198.206 58.5603L186.847 58.0883L199.802 58.9985L184.919 57.8523L176.777 57.549L190.813 57.5827L206.974 57.976L223.086 58.4591L236.828 58.6951L237.209 58.2793L224.462 58.1782L209.946 57.313L194.645 56.9646L180.043 56.7849L170.305 56.3241L195.455 56.7174L181.222 56.2792L168.45 55.796L155.875 55.3353L139.665 55.3915L123.271 55.5263L108.903 55.6275L98.4274 55.796L80.2523 56.3466L76.47 56.8186L63.9071 57.1107L51.3687 57.4703L60.6773 56.7624L73.9034 56.4477L61.3896 56.4253L46.7145 56.6051L33.1814 56.8186L46.2478 57.0658L36.6691 57.4815L39.8374 57.2231L24.3149 57.2568L9.65209 57.7175L-0.0249023 66.3024L15.4607 65.8417L26.1447 65.8642L34.827 65.9204L20.6431 65.8979L22.9395 66.3361L38.462 66.0552L51.3319 65.8305L43.19 65.7968L49.3425 65.4821L64.693 64.3584L59.4984 65.572L55.9002 66.0777L45.9776 66.1226L53.1617 66.5833L68.9912 66.2238L80.5839 66.1451L96.0695 65.808L112.464 65.4259L128.085 64.9652L141.348 64.4371L141.237 63.291L136.509 63.3022L150.963 62.9651L165.663 63.5943H179.687L182.966 63.864L166.817 63.7854L157.066 64.4034L172.896 64.4259L189.794 64.4708L206.79 64.5495L221.797 64.5158L233.488 64.4821L242.268 64.5045L256.145 64.9989L270.624 65.4147L285.373 66.4597L286.601 54.0431L272.797 54.0094L262.027 54.4251L267.345 54.7398L282.413 54.706L290.543 65.381L285.373 55.0656L270.083 55.2791L264.385 55.178L253.259 55.5151L246.972 55.8072L262.985 55.6724L261.02 55.9421L249.28 56.4477L236.668 56.7624L232.874 56.2118L230.614 56.6275L227.065 57.0096L219.623 57.0321L209.578 57.695L216.074 57.9535L229.14 57.8748L242.526 57.6388L256.538 57.4253L271.803 57.3355L285.569 57.4478L271.864 57.504L256.722 57.6613L240.917 57.8973L224.891 58.2007L209.848 58.4816L195.848 59.3468L184.145 58.9873L174.222 59.3581L165.417 59.5828L156.256 59.9312L145.498 60.3582L132.1 60.6503L117.99 60.8301L113.139 60.7065L109.296 60.2458L122.853 59.594L137.049 59.3356L145.891 58.9311L161.291 58.5378L153.26 58.5603L138.953 59.594L151.246 59.2569L142.035 58.358L129.276 59.4704L116.688 58.3805L130.983 58.0321L137.111 57.6276L142.588 57.7063L158.454 57.3017L172.233 56.9646L181.885 57.3017L192.483 57.2343L201.018 56.5264L197.346 56.3241L184.12 56.7511L172.11 56.695L158.123 57.0658L157.963 56.5264L165.221 55.3915L153.444 55.5488L139.211 55.6499L123.602 55.841L107.834 56.2904L107.785 56.5152L91.6117 57.2231L78.6313 57.7175L65.4667 58.7063L55.8879 59.448L48.6302 60.1109L41.7532 60.7177L24.9658 62.7066L36.2147 70.6511L49.1214 69.7521L64.5211 68.3925L80.1173 67.1901L93.6012 66.1788L108.497 65.1675L98.9186 65.9091L86.9329 66.853L74.0876 67.9767L58.8107 69.5274L66.6333 69.1678L74.3209 68.3812L88.5908 67.1789L103.02 66.0889L117.769 65.1563L130.479 64.6394L145.056 63.909L145.474 64.0888L158.037 63.6505L170.329 62.9988L183.445 62.6729L197.125 62.3808L211.272 62.0324L225.788 61.7178L240.561 61.3807L255.433 61.0436L277.648 49.2787L256.157 42.222L241.531 41.4354L227.323 40.7275L213.52 40.2668L206.115 39.9858L191.182 39.7274H175.757L161.537 39.9184L158.724 40.1207L174.026 39.9634L187.547 40.6039L175.192 41.0309H165.994L179.331 40.9185L192.201 40.3567L188.59 40.8623L200.281 40.9634L206.397 41.4579L222.546 41.7163L233.635 42.4467L245.731 42.8849L259.547 43.7614L268.18 59.4367L251.773 60.1222L245.019 60.302L232.223 60.0772L223.062 60.6166L214.686 61.0099L212.021 60.8638L200.846 61.4032L199.176 60.9425L188.148 61.7515L183.654 61.5942L171.128 62.1223L156.452 62.819L142.539 63.2235L152.265 62.5718L155.249 61.9088L160.64 61.6167L168.18 61.4594L159.731 61.3133L173.092 60.684L186.699 60.2345L201.559 59.7514L208.313 59.9312L194.301 60.4143L201.423 60.3694L215.595 59.8637L221.318 59.4367L232.198 59.4704L219.672 59.8188L219.046 60.3582L232.689 59.6839L235.661 58.6839L242.256 59.0547L257.57 58.6389L270.943 47.11L258.282 44.7165L248.666 44.2334L238.731 43.8288L226.058 43.1771L211.825 42.84L196.524 42.5141L187.633 42.2107L175.082 42.5366L167.272 42.222L154.905 42.8175L147.083 43.503L158.552 43.222L144.295 43.9861L134.36 44.503L117.953 45.1885L107.024 45.6042L92.3731 46.3683L78.4471 47.5033L70.2315 47.5932L55.7651 48.8517L40.9304 49.9192L26.8447 51.5485L29.4236 51.4249L34.1516 51.335L43.3128 50.5821L57.1897 49.4697L69.0894 48.7281L70.1087 48.7056L85.1277 47.8291L78.7296 48.537L62.9983 49.8068L67.1123 49.7057L83.0032 48.6157L87.4364 48.9079L85.9259 49.1438L83.4575 49.0652L70.821 50.29L71.4964 50.5147L60.6405 51.4811L48.839 52.5598L40.8444 53.2677L37.1357 53.8071L25.6289 55.5151L21.7729 57.7175L24.8553 57.8748L38.4497 56.9871L51.5775 56.1219L53.2108 56.3803L57.423 56.2567L68.3526 55.7623L81.726 54.7959L65.4176 55.5488L56.7599 55.9646L61.451 55.5938L67.5052 54.8072L68.7824 54.7959L80.9523 54.515L96.9783 53.5374L110.511 53.5487L104.85 53.9757L91.2311 54.4251L99.1519 54.324L113.557 54.2903L113.053 54.7398L121.097 54.1667L134.114 53.9419L148.298 53.9757L164.717 54.1105L153.235 54.2453L141.532 54.279L152.081 54.5375L147.451 54.8184L158.552 54.6274L172.11 54.1892L186.097 53.8071L200.416 53.7509L214.699 53.6723L229.361 53.5487L244.245 53.3464L258.527 53.043L273.055 52.2339L266.706 52.7396L253.149 53.3352L262.322 53.2565L277.341 52.1216L279.343 46.1099L280.227 46.638L264.041 45.0649L249.194 44.8626L248.851 44.5143L255.187 44.4581L232.886 43.9749L227.826 44.1659L227.728 44.6716L237.245 45.0649L252.522 45.357L262.113 45.9638L253.591 45.6042L243.226 45.4694L242.28 45.4357L241.826 45.6492L250.029 46.0987L255.691 46.5257L265.11 47.1999L259.412 47.3347L270.243 47.5033L280.387 48.9528L271.766 47.8067L274.762 48.155L271.962 49.6607L278.581 48.818L276.899 48.7056L278.815 48.0988L269.752 48.9978L273.141 48.3235L277.464 49.7394L276.924 47.2898L263.366 48.1999L255.064 48.5932L259.363 48.0876L269.973 47.4808L274.897 47.3909L276.027 46.8515L265.871 47.5145L258.527 47.6493L243.152 47.8516L232.984 47.8404L227.335 48.2112L215.092 48.0651L205.537 48.0089L192.631 47.9303L194.866 48.2898L179.773 48.4471L166.645 48.4134L166.608 48.8517L173.424 49.1551L177.047 49.3461L186.257 49.1551L191.943 49.7281L173.007 49.5708L163.759 49.8517L148.961 49.8293L146.247 49.7281L143.276 49.6495L137.651 49.9304L122.325 50.0091L119.206 49.8405L108.853 50.0877L121.306 49.4809L106.79 49.7731L93.0854 50.4585L86.0978 51.0428L71.5332 51.6946L60.9598 52.5486L63.5141 52.2115L51.4056 52.8969L58.3686 52.9082L74.5911 52.1328L87.6329 51.8968L104.297 51.2114L114.638 51.0766L124.155 50.9305H130.578L135.392 51.4811L121.073 51.807L110.904 52.4699L95.5538 52.8857L80.9892 53.5374L67.407 54.133L74.677 53.4138L84.0593 52.9306L97.8011 52.3014L104.801 52.0204L99.7782 52.0766L92.7661 52.0317L81.7751 52.5598L67.5052 53.2115L52.474 54.1442L35.5515 55.1218L22.0553 55.8185L17.5361 58.2456L27.9991 55.8859L44.2829 54.8521L32.2849 55.8522L27.9868 56.4365L24.9044 56.8747L18.0273 56.9646L29.0552 55.2454L38.3269 54.4251L45.6706 54.1217L39.555 55.0656L48.1267 54.706L51.4179 54.8858L61.2545 53.7846L72.8718 52.7396L58.823 53.5824L53.6529 53.8296L68.6596 52.7846L78.8032 51.7171L85.275 51.9867L85.1154 52.4137L86.2943 52.7508L80.3629 52.9981L74.6279 53.6161L62.0896 54.2229L49.846 55.2791L38.1673 56.4815L27.864 57.8523L29.0429 58.2344L43.9022 56.7174L45.6215 56.3354L56.2441 55.0881L61.2299 54.7847L69.8262 53.7959L70.3666 54.324L68.8315 54.751L77.698 54.8072L80.5348 54.6161L87.2522 54.1892L87.3259 54.3352L103.917 53.5487L111.162 53.5374L115.645 53.0205L121.711 53.2453L135.76 52.9531L149.244 52.7396L159.277 52.8969L171.263 52.7508L184.047 52.8969L191.157 52.9306L196.204 53.4026L182.892 53.3464L188.615 53.4925L203.339 53.5149L206.532 53.1329L215.128 53.661L230.282 53.9307L243.951 54.4026L256.968 55.1218L254.524 55.1892L239.898 54.6386L226.156 54.1554L212.513 53.9644L198.636 54.0993L199.139 54.2566L205.402 54.8184L206.139 54.8521L220.139 54.8409L231.756 55.5263L247.315 55.9533L261.512 56.6051L265.319 46.5369L258.785 47.0538L245.879 47.2336L236.017 47.1662L248.028 46.7504L236.251 46.8403L225.002 46.9639L235.232 46.5481L250.447 46.2335L262.555 46.1886L261.561 57.6613L249.6 57.0995L235.047 56.9646L234.163 57.122L247.451 57.6051L260.984 58.2793L263.87 45.3458L249.268 45.402L234.372 45.7616L219.328 46.1661L204.236 46.7841L189.168 47.4246L174.198 48.2337L159.375 49.0315L144.823 49.8405L130.283 50.8069L116.541 51.8856L103.462 53.0318L95.9222 53.7734L91.3416 54.4139L77.0594 55.7623L74.3455 55.6724L88.3206 54.4476L79.2331 55.1106L64.5825 56.3691L49.8337 57.4703L34.827 58.6839L31.0446 75.1458L45.3145 73.7861L59.5475 72.8085L73.977 72.0219L88.4066 71.5725L102.566 71.1679L116.836 70.7072L130.885 70.2915L144.565 69.9207L158.086 69.5836L171.57 69.2465L184.771 68.9094L173.903 69.0554L159.289 69.3701L144.27 69.7409L129.313 70.1117L114.908 70.4376L101.399 70.5387L106.52 70.2915L109.639 70.0443ZM196.241 55.369L211.248 55.2005L225.64 55.4926L224.425 55.5825L207.367 55.4252L196.241 55.369ZM157.386 55.8747L167.603 55.3241L178.52 55.1106L177.427 55.3915L163.182 55.7061L157.386 55.8747ZM160.566 54.8184L167.8 54.4925L170.649 54.7735L161.905 54.9533L160.566 54.8184ZM147.942 54.5263L144.798 55.0319L136.423 55.2566L142.097 54.6611L147.942 54.5263ZM137.565 46.7054L124.204 46.9527L107.736 47.2448L105.71 47.2785L122.153 46.8178L134.974 46.683L137.565 46.7054ZM244.823 47.3122L230.344 47.4134L226.795 47.256L239.898 47.3347L244.823 47.3122ZM26.0833 52.189L41.5935 51.2114L54.6108 50.4248L41.4953 51.3462L28.1096 52.3238L26.0833 52.189ZM115.19 48.3797L129.128 48.11L137.16 48.0763L149.968 48.0539L141.102 48.3011L136.411 48.4921L150.607 48.4696L163.845 48.6269L151.405 48.8517L146.69 49.0539L129.706 49.1438L115.313 49.2562L115.239 49.0652L131.597 48.9416L124.241 48.8741L111.874 49.0427L109.553 48.8854L116.946 48.4696L125.739 48.2674L115.19 48.3797ZM154.733 48.4584L153.542 48.4247L155.286 48.1887L169.126 48.391L163.931 48.537L158.995 48.7168L154.733 48.4584ZM57.644 51.4586L63.1211 50.9754L58.5528 51.4137L42.0847 52.6385L48.2986 52.0317L57.644 51.4586ZM150.582 47.9864L148.532 47.6269L158.245 47.5819L165.614 48.0539L155.433 47.919L150.582 47.9864ZM21.9939 54.3577L34.1638 53.9082L40.169 53.3127L44.897 53.5262L33.0586 54.4701L21.8588 54.8409L19.9431 59.4367L27.0166 54.0993L21.9939 54.3577ZM252.621 48.2674L261.819 48.964L252.179 48.7393L236.128 48.3573L232.567 48.0651L246.91 48.1999L252.621 48.2674ZM164.189 47.2785L150.656 47.301L143.816 47.1662L158.614 47.256L164.189 47.2785ZM246.321 47.9977L247.893 47.4695L243.177 47.256L246.186 47.0763L255.285 47.2785L257.312 47.5257L270.378 47.8628L264.533 48.0426L253.75 48.1775L255.85 47.919L253.443 47.5932L246.444 47.6269L246.321 47.9977ZM105.857 51.3687L110.045 51.762L120.201 51.3687L111.26 52.2452L107.343 52.1665L105.857 51.3687ZM181.001 46.4919L173.694 46.4245L177.575 46.0649L183.371 46.4919H181.001ZM148.544 45.3795L161.23 45.3121L173.952 45.2447L173.314 45.3458L164.324 45.4582L152.191 45.4245L148.544 45.3795ZM188.418 44.8851L202.111 44.7952L216.578 44.6491L222.976 45.166L234.519 45.4245L226.832 45.3458L216.799 45.4357L207.601 45.1435L205.562 45.4469L192.729 44.8514L188.418 44.8851ZM204.174 44.5705L203.266 44.1435L214.539 44.1097L217.535 44.312L222.877 44.5592L208.448 44.503L204.174 44.5705ZM179.626 54.6836L174.922 54.7622L169.764 54.5824L174.271 54.279L186.564 54.1667L187.436 54.6611L179.626 54.6836ZM227.839 54.0318L235.44 54.1217L234.667 54.279L222.742 54.6499L211.334 54.6274L194.804 54.9195L187.62 54.7622L200.871 54.515L199.962 54.3015L216.32 54.2903L220.028 53.852L229.374 54.0543L227.839 54.0318ZM20.4589 64.4596L10.2293 64.7293L5.09604 65.0664L1.03121 59.0322L9.79945 58.9985L0.355792 64.4146L0.601401 64.2348L10.5731 64.4371L20.4589 64.4596ZM155.789 71.6624L142.662 72.64L129.546 73.5164L116.32 74.303L102.762 75.0671L88.5785 75.8762L73.5718 76.7302L57.6072 77.6403L51.86 77.955L66.0562 76.9998L80.6576 76.0784L95.2468 75.202L109.86 74.348L124.302 73.5389L138.4 72.7186L152.007 71.8983L155.789 71.6624ZM183.175 43.3232L186.736 43.3007L198.906 43.4917L184.845 43.4805L170.071 43.2782L171.877 43.1771L183.175 43.3232ZM45.425 57.9198L41.79 58.4816L39.2111 58.5266L43.7426 58.0771L45.425 57.9198ZM22.5588 53.4588L24.3027 59.8525L40.2181 58.8749L42.6005 58.5378L53.8003 58.2456L39.3093 59.2569L21.7606 60.2233L22.5588 53.4588ZM159.744 55.9533L168.07 56.4702L153.702 56.7062L155.458 56.1781L159.744 55.9533ZM151.135 55.4701L138.351 55.5263L121.257 55.605L109.038 55.7061L103.941 55.9309L105.562 56.2567L93.0363 56.4028L83.6417 56.6275L71.2753 57.504L74.1121 57.4478L73.67 57.6051L86.5031 56.7624L82.426 57.2905L96.7695 56.7174L99.9747 57.122L93.7731 57.2905L100.589 57.3467L114.601 57.2456L119.943 57.0321H130.271L138.498 57.268L134.004 57.3692L141.212 57.6726L151.246 57.4591L167.014 57.1669L182.033 56.9759L188.247 56.6163L184.808 56.3579L187.006 56.2455L193.932 55.8522L208.423 55.7398L211.014 55.841L196.425 56.032L206.286 56.223L219.488 55.8634L225.898 55.8072L233.856 55.7623L243.742 55.2342L256.685 55.0207L258.638 54.8634L249.686 54.9083L234.605 55.2679L219.12 55.5376H205.022L215.411 55.4027L229.386 55.0881L229.988 54.942L214.649 55.1443L205.378 55.1892L191.022 55.4701L175.487 55.6724H164.705L153.149 55.9758L137.074 55.8859L139.984 55.7735L154.279 55.6162L155.114 55.3915L151.135 55.4701ZM275.339 43.9974L278.459 52.9756L274.946 53.3352L277.894 44.8514L265.712 44.1772L269.617 44.076L275.339 43.9974ZM233.709 43.458L220.962 42.9748L233.34 42.649L235.624 42.5029L239.726 42.9186L254.033 43.0647L244.159 43.1659L236.312 43.1771L233.709 43.458ZM62.4825 45.6717L76.4454 44.6828L90.2241 43.9974L105.489 43.3119L98.1204 43.7165L84.1575 44.3907L70.1578 45.3121L55.7529 46.3683L51.7372 46.5706L65.1842 45.4132L62.4825 45.6717ZM65.307 58.7288L55.8757 58.785L50.4231 59.4143L57.1037 59.2907L69.6912 58.7176L79.2453 58.2007L87.6329 57.7737L75.8928 57.7849L65.307 58.7288ZM68.0087 58.1557L53.6406 59.0322L43.1286 59.3806L39.6532 59.83L27.078 60.6953L32.9849 72.0444L24.8676 60.9649L54.8809 58.4142L59.6826 58.2569L66.8667 58.1782L68.0087 58.1557ZM174.321 61.1784L186.576 60.493L186.908 61.0436L182.868 60.7964L174.321 61.1784ZM266.497 42.604L252.964 42.1545L238.007 42.0984L236.84 41.7725L247.18 42.0534L265.184 42.1995L266.497 42.604ZM274.283 42.4692L274.382 42.4018L278.238 42.8849L272.834 55.2904L263.919 55.7174L280.448 54.0206L274.283 42.4692ZM95.3327 55.1443L109.087 54.56L123.209 54.2566L138.204 53.9532L130.541 54.3352L115.718 54.6499L99.987 55.0094L95.3327 55.1443ZM47.8443 57.3242L46.2969 57.1669L57.9879 56.7287L67.4684 56.2904L50.1161 57.4366L47.8443 57.3242ZM65.8842 70.2915L51.6635 72.0107L39.5918 73.1681L33.206 73.3479L48.5197 72.0444L63.4281 70.6511L65.8842 70.2915ZM104.568 67.1115L103.868 66.9317L117.425 66.0889L113.815 66.4597L104.568 67.1115ZM275.843 55.7848L260.677 56.8073L247.291 57.5152L257.938 56.7511L273.006 55.9646L276.838 41.9186L276.666 55.7511L275.843 55.7848ZM196.732 50.4585L212.083 50.6159L226.881 50.9979L206.679 50.7956L196.732 50.4585ZM191.501 46.5032L187.915 46.1548L202.676 46.3683L217.67 46.5931L231.118 46.8403L221.072 47.0201L208.829 46.5481L197.039 46.5144L191.501 46.5032ZM259.67 65.7181L262.322 60.7627L259.743 60.5941L261.77 66.8081L254.143 66.6508L255.101 66.2462L241.396 66.4035L227.102 67.2238L212.414 68.134L216.025 67.752L229.607 66.8081L245.24 65.9204L260.996 65.6844L264.459 65.9428L259.67 65.7181ZM208.472 70.4713L220.274 69.3363L235.06 68.325L250.705 67.6396L262.666 67.6733L267.701 67.898L261.254 68.0441L251.061 67.8306L237.344 68.4599L228.465 69.0667L214.993 70.1229L208.472 70.4713ZM140.304 43.458L128.097 43.9524L112.722 44.5929L115.092 44.2446L118.469 43.9075L130.823 43.649L144.454 43.1659L134.213 44.1547L137.295 43.7277L140.304 43.458Z" fill="#444444"/>
</g>
<path d="M286.282 24.4178L270.649 25.0829L257.218 25.3157L244.967 25.6371L248.78 25.1383L264.105 24.9831L279.714 24.6395L286.282 24.4178ZM186.223 25.8588L172.878 26.3244L168.278 26.1913L183.973 25.9031L186.223 25.8588ZM191.07 25.9031L204.206 25.6704L218.473 25.5152L233.553 25.3822L232.446 25.5041L216.592 25.8366L201.869 26.014L191.07 25.9031ZM291.706 24.5287L289.935 25.2713L263.687 26.1803H251.56L265.815 25.9697L279.825 25.5152L291.706 24.5287ZM221.745 32.6646L235.226 32.8087L247.698 33.4738L233.282 33.0415L221.745 32.6646ZM255.951 27.3663L240.859 27.6766L226.886 27.8983L235.865 27.5769L252.273 27.3552L255.951 27.3663ZM243.467 28.0313L264.007 27.5436L266.553 27.6656L251.055 27.9094L243.467 28.0313ZM195.178 28.8848L180.369 28.8738L174.084 28.7407L190.196 28.7297L195.178 28.8848ZM271.559 32.6535L285.95 33.1413L292.112 33.5957L279.197 32.9196L271.559 32.6535ZM192.299 31.3123L207.416 31.5229L207.195 31.6005L193.234 31.3456L192.299 31.3123ZM162.805 21.1923L148.131 21.4251L134.036 21.6024L147.368 21.2366L160.689 21.1812L162.805 21.1923ZM137.947 24.9721L128.759 25.0496L141.649 24.6506L132.842 25.3157L137.455 24.9831L137.947 24.9721ZM123.507 25.5928L114.737 25.5152L111.933 25.4265L119.768 25.4598L123.507 25.5928ZM74.3571 25.3157L81.5402 24.2405L87.7023 24.3957L75.0828 25.2603L74.3571 25.3157ZM32.4026 16.5923L46.3014 15.8829L48.2693 16.038L33.5588 16.5368L32.4026 16.5923ZM264.979 38.9051L279.025 38.495L271.805 38.9495L262.851 39.0603L264.979 38.9051ZM134.343 38.1957L147.307 38.1736L142.35 38.5948L128.242 38.9273L119.153 39.149L123.605 38.8165L138.746 38.4728L134.343 38.1957ZM273.699 25.9031L288.065 26.0472L289.394 26.413L273.564 26.0805L259.358 25.5041L268.115 25.5928L273.699 25.9031ZM133.113 19.6626L119.829 20.106L105.291 20.5161L100.888 20.3388L115.463 19.9508L130.383 19.5518L133.113 19.6626ZM114.934 19.5629L100.519 19.9176L86.62 20.4385L90.273 20.106L106.607 19.585L114.934 19.5629ZM238.239 26.2468L237.157 26.5239L228.067 25.1051L240.023 26.5904L238.239 26.2468ZM194.083 18.787L201.131 18.8202L209.335 19.3634L193.382 18.6318L194.083 18.787ZM173.936 17.8448L160.222 17.6564L167.946 18L154.109 17.9667L145.155 17.5788L151.698 17.1576L164.305 17.5233L173.936 17.8448ZM224.734 20.8043L213.799 20.1614L200.971 19.3744L213.861 19.8511L222.139 19.9952L226.751 20.6824L224.734 20.8043ZM170.381 24.9166L158.131 24.7282L142.744 24.5952L157.676 24.3846L169.951 24.8169L170.381 24.9166ZM125.29 24.8169L110.506 25.2935L101.49 25.5595L116.545 24.9942L125.29 24.8169ZM94.8608 18.4988L104.873 18.4877L118.169 18.1441L104.688 18.8091L90.765 19.2525L76.8294 19.84L83.2375 19.3966L88.5879 18.7759L94.8608 18.4988ZM79.3754 26.6791L89.7933 26.2578L81.3311 27.0448L72.7335 27.455L65.8211 28.2087L78.4037 26.9007L79.3754 26.6791ZM50.9999 21.026L37.3594 21.8463L24.6292 22.6443L12.2433 23.7417L27.249 22.2675L40.6804 21.4583L50.9999 21.026ZM16.13 20.0617L22.3045 19.4853L10.8166 23.2651L23.8912 21.9904L34.2968 21.7354L20.3981 22.4116L11.7144 19.452L26.6463 19.1195L30.4101 18.3214L24.3217 18.1773L11.5422 18.3436L22.7227 17.9002L36.4861 17.5012L37.1626 18.266L48.3923 17.5455L41.4184 17.3793L53.7673 16.9913L68.2564 16.3927L70.1014 16.5147L75.0705 16.8139L85.5745 16.5479L87.5794 16.4482L98.7598 16.027L113.335 16.3152L128.341 16.3927L143.174 16.4482L155.277 16.4925L149.066 16.7253L134.282 16.9026L120.506 16.6144L126.422 17.0356L128.365 17.4014L115.967 17.2684L109.694 17.0135L105.598 17.3017L111.736 17.4014L98.5507 17.7007L84.6643 17.9556L70.5934 18.2438L55.6246 18.6761L40.5451 19.1306L28.4175 19.7402L16.13 20.0617ZM40.6066 38.8608L45.0468 38.2401L46.904 38.2512L49.7207 38.229L34.7642 39.2931L40.6066 38.8608ZM119.756 27.1889L113.766 27.0005L119.018 26.5571L132.535 26.2689L122.511 26.6901L119.756 27.1889ZM54.7267 30.8357L53.1769 30.4145L45.8832 31.1793L52.156 30.2039L59.7327 29.5832L54.7267 30.8357ZM75.6855 28.9735L60.852 30.0376L61.0242 29.6608L64.8248 28.8848L77.1 27.7653L85.3039 27.4882L90.8265 27.5658L96.8288 26.8564L97.8988 26.3687L96.9887 26.3244L111.588 26.0029L125.229 25.3822L137.209 25.1494L139.103 25.2935L122.621 25.6704L134.269 25.6371L147.627 25.626L160.64 25.8588L175.006 26.3133L162.915 26.2357L146.864 26.0805L140.837 25.8921L129.878 25.9918L135.893 26.2024L120.617 26.5793L107.726 26.8121L93.557 27.5436L77.9732 28.6299L75.6855 28.9735ZM29.9673 38.7721L16.2653 39.6589L19.4141 39.2598L29.3646 38.7278L29.9673 38.7721ZM12.2064 37.4531L19.943 36.3336L10.2262 39.8806L16.9664 36.5331L12.2064 37.4531ZM174.059 29.561L175.092 29.1398L190.381 29.694L182.964 29.561H174.059ZM24.8506 38.1181L13.1412 39.7365L17.4953 37.3533L10.7428 40.0468L26.8677 37.3866L40.951 35.4911L38.86 36.0121L23.8912 38.096L24.8506 38.1181ZM32.8085 26.5239L27.2244 26.1581L39.3274 25.6371L53.6074 25.4043L38.7001 25.9586L32.8085 26.5239ZM72.9057 25.1494L60.4092 25.5152L42.9927 26.0694L50.8892 25.615L66.9896 25.1383L82.475 24.9277L86.1526 25.0829L76.6326 25.4709L72.9057 25.1494ZM86.5462 32.4762L83.0653 32.842L68.0473 34.2608L52.9924 35.9899L40.5943 37.9075L26.0437 40.3239L34.5551 38.3952L47.4329 36.4333L60.6429 34.7707L75.6732 33.3186L86.5462 32.4762ZM136.852 32.1769L122.978 32.4429L119.829 32.1215L133.408 31.8887L136.852 32.1769ZM37.876 38.7499L50.1512 37.0651L63.5456 35.6796L68.6992 35.5022L80.3348 34.1167L87.6532 33.7731L101.958 32.9639L109.092 32.72L96.5336 33.5292L83.0038 34.5157L68.3917 35.7461L53.4229 37.4087L38.9953 39.4372L33.8663 39.681L31.3572 40.7784L30.9513 40.1133L37.876 38.7499ZM73.4715 35.7572L59.499 36.9099L50.9015 38.2401L38.1712 40.1577L51.578 38.0516L36.7198 40.2796L24.5554 42.308L39.5488 39.6478L53.386 37.5861L66.842 36.0897L80.6054 34.9813L91.8105 34.0391L95.8325 34.0834L80.1749 35.3138L66.9404 36.522L73.4715 35.7572ZM153.002 31.0574L139.46 30.9022L133.113 30.7359L146.52 30.6805L152.165 30.9576L153.002 31.0574ZM169.176 31.4453L169.975 31.2791L173.641 31.1239L158.623 30.7803L146.889 30.5697L147.467 30.1928L138.82 30.3812L130.924 30.5586L127.049 30.4367L134.724 29.8603L156.593 30.0376L163.26 30.4256L174.809 30.7914L179.717 30.9798L193.837 31.5008L190.676 31.6005L189.397 31.8222L193.997 32.3875L178.511 31.8665L169.176 31.4453ZM31.7261 43.8044L17.3354 44.4473L14.4327 44.8353L11.8743 33.6068L9.98017 34.3273L21.0254 31.8444L16.991 32.1658L30.816 30.1374L43.8045 28.508L31.7999 30.4588L16.9787 33.0637L17.6183 44.0815L31.6646 43.8044H31.7261ZM110.42 28.4082L120.297 27.9981L119.19 28.242L111.096 28.4526L110.42 28.4082ZM179.545 33.7731L172.472 33.2521L157.848 32.8309L164.527 32.709L161.71 32.0106L167.479 31.8222L172.792 31.8333L186.752 32.2767L189.483 32.5759L185.941 32.5538L200.38 33.241L201.746 33.1634L209.667 33.3186L196.887 32.3653L210.626 32.7866L216.961 32.8087L219.605 33.3962L226.21 33.7398L234.684 34.1388L240.515 34.7707L225.952 34.0502L219.236 33.9393L230.011 34.7041L215.743 33.8839L215.977 34.0169L232.015 34.8593L237.809 35.5244L251.904 36.1784L261.326 37.1649L272.297 38.3177L279.837 25.1162L265.139 21.9571L249.85 19.4299L235.509 17.1686L250.379 19.1528L253.897 19.3523L252.531 18.6872L239.457 16.6033L238.928 16.1045L224.291 14.0096L209.113 12.0255L194.243 10.6954L179.557 9.7532L164.982 9.12139L150.8 8.77777L136.385 8.78885L122.449 9.13247L108.489 10.5402L94.4918 10.3074L80.5316 10.9503L66.5345 11.6265L52.4143 12.2361L37.9375 12.9233L23.4484 13.9653L5.55226 16.2597L12.2187 14.7966L21.9232 14.32L6.13035 16.5368L23.4976 27.3219L38.5279 26.801L53.6443 26.2468L68.158 25.8034L80.2856 25.7036L97.9357 25.5263L110.125 25.7701L119.62 25.8921L121.613 25.8477L136.729 25.9586L151.095 26.2246L165.4 26.5904L179.114 27.0116L193.111 27.5326L207.17 28.0868L220.146 28.4969L237.772 29.3836L249.493 27.6545L261.953 30.3702L257.697 18.8313L251.289 18.3325L237.255 17.3349L220.601 16.1267L205.116 15.0959L192.459 14.5638L189.237 14.1537L172.841 16.1378L183.456 14.065L175.892 14.2645L161.39 14.3421L146.876 14.5527L132.744 14.9518L137.898 14.9739L147.159 15.0737L134.81 15.4727L120.334 15.9826L106.484 16.7918L92.7329 17.8559L78.6989 19.1528L76.5588 19.6959L63.0167 21.1258L47.9987 22.7773L33.362 24.3735L45.6372 23.4313L60.4953 21.9239L47.4575 23.4646L32.8208 25.1605L19.6847 26.6901L5.87205 28.3639L17.114 27.0892L32.87 25.3489L48.5399 23.5533L63.3242 21.9349L76.3743 20.7046L80.999 20.5937L67.5922 22.0458L52.3651 23.5533L36.9904 25.2381L23.3992 27.1446L18.6638 28.0757L31.9475 26.6901L46.6212 25.227L58.7733 24.3735L44.481 26.0029L42.6237 26.3465L55.8214 25.0386L68.9575 23.7306L82.0937 22.467L95.5742 21.2699L109.805 20.2279L125.044 19.4299L141.588 19.0308L138.304 19.319L122.154 19.8289L116.877 20.627L130.075 19.9287L140.075 20.4385L155.277 20.0838L145.179 20.0395L146.372 19.7402L161.157 19.4409L174.157 19.3966L183.247 19.6294L197.908 20.2501L212.889 21.2477L224.242 22.2342L234.844 22.8217L248.522 23.7639L262.863 25.0275L258.915 24.5841L252.199 23.9634L237.809 23.2872L225.041 22.3451L235.632 22.8217L251.24 23.6419L265.852 24.2737L256.357 25.0829L243.774 24.174L248.509 24.5841L254.241 25.3157L239.039 24.2848L225.251 23.3094L219.74 23.2096L236.64 24.2737L246.91 25.1716L263.404 26.5017L262.605 23.1431L250.846 22.4559L241.991 22.1677L238.042 21.414L249.961 22.0125L264.081 22.7441L256.763 26.6347L243.159 25.3489L229.273 24.3292L236.247 25.5817L249.051 26.5017L263.872 27.6101L257.66 22.0236L241.646 21.1812L251.363 21.4361L240.699 20.6824L231.806 19.9952L246.209 20.6602L262.371 21.5581L257.427 27.7321L244.893 27.0005L254.77 27.9981L264.511 21.9017L252.298 20.3277L237.489 19.6072L225.029 18.5653L248.928 19.9508L235.004 18.9976L223.381 17.7783L208.621 16.825L192.14 16.1378L176.175 15.7055L163.862 15.4284L146.298 15.2732L137.295 15.6944L130.37 15.8939L117.505 16.1378L127.824 15.5392L137.578 15.3841L122.535 15.2511L108.415 15.3951L105.795 15.5614L109.399 16.1378L110.026 15.8053L95.9063 15.905L80.5439 16.2597L68.3671 16.2043L52.7095 16.8139L41.074 16.8805L43.1403 16.6255L53.8165 16.4592L40.0162 16.5479L25.9822 16.9691L24.703 17.213L26.0806 17.3349L10.5829 17.8226L14.0637 17.4014L18.9221 16.8915L28.7373 16.6033L14.6664 16.5701L16.2161 25.7923L30.1149 25.0386L46.5966 24.2072L62.6108 23.254L76.4481 22.3672L80.0888 21.8352L74.3202 22.0458L88.7232 21.3364L103.335 20.9152L117.431 20.505L110.826 20.9373L95.6849 21.5026L101.466 21.5691L118.28 21.2255L135.352 21.0593L150.653 21.1258L162.325 21.2699L171.636 21.547L185.338 22.6111L199.778 23.9966L214.291 25.3822L228.166 27.1557L240.133 28.4193L243.639 28.5856L228.731 26.3244L214.771 24.5176L223.43 25.2935L238.128 27.1668L241.056 27.5326L256.098 29.8048L252.212 29.04L239.383 26.9894L251.068 28.1754L264.671 30.0376L268.533 31.8L273.884 32.3764L275.261 32.4651L278.988 30.2371L266.836 30.3812L279.591 30.7138L269.161 30.348L256.061 28.1311L241.622 25.9807L225.533 23.5865L233.208 24.6063L247.968 26.7123L263.663 29.162L278.705 32.4208L268.632 30.9465L255.164 30.4588L235.951 29.3836L232.815 29.428L227.378 29.2617L216.407 28.6632L203.541 28.1644L188.61 27.3774L183.247 26.8453L180.652 26.2246L192.201 26.8453L207.318 27.2998L219.236 27.8873L225.915 28.12L212.643 27.3995L213.664 27.3109L211.856 27.0227L198.142 26.3022L186.642 25.2824L200.836 25.9918L202.717 25.9697L214.673 26.6791L228.83 27.2998L240.096 28.253L251.929 28.8848L266.799 29.5056L262.802 29.1065L249.235 28.4969L237.206 27.5769L223.971 26.8121L226.653 26.5239L227.956 25.9807L215.337 25.1827L200.38 24.2183L184.452 23.387L176.027 23.2318L166.777 23.0988L153.26 22.7663L140.235 22.9325L132.584 23.132L127.701 23.6419L114.085 23.8969L98.6614 24.5176L88.0836 24.8169L73.5945 25.6371L57.5679 26.8786L43.2756 28.2087L28.479 30.348L36.1787 29.1176L48.3554 27.4771L61.6638 26.2357L72.9303 24.9721L65.2307 25.6371L52.0453 26.6901L38.0728 28.3639L22.2184 30.7914L7.08973 34.5268L24.9244 45.6223L26.6955 45.6444L39.3889 44.935L51.5411 44.2256L64.8863 43.6714L78.785 43.095L92.8559 42.6406L107.456 42.2304L122.412 41.8425L137.049 41.5432L151.759 41.3215L166.495 41.0222L180.713 41.0112L190.578 42.4965H202.853L217.846 40.9003L232.557 40.6565L246.16 40.1466L231.339 40.4902L217.92 40.6786L224.623 40.3904L234.894 40.2463L221.88 40.3461L210.811 40.5235L210.38 39.7032L202.68 39.814L192.078 39.8806L177.122 39.7808L166.101 39.8584L152.485 40.0468L138.094 40.1688L123.236 40.59L114.713 41.1331H105.328L95.2298 41.7982L94.4918 41.4878L82.9669 42.1972L76.2267 41.7649L69.3265 42.5962L63.6932 42.6295L50.6063 43.483L36.5968 44.2478L22.8088 44.9018L32.9807 43.749L34.6781 43.6049L41.2216 43.1394L42.7221 43.3056L47.0516 42.308L60.0648 41.5654L74.8122 40.8892L84.6151 40.8006L71.0362 41.4545L78.9941 41.8092L88.7847 40.7562L98.2063 40.1244L101.22 40.4237L94.1597 40.9779L100.703 40.723L109.153 40.2463L111.502 40.0025L126.914 39.415L140.862 39.1822L150.247 39.1712L162.3 38.8165L172.804 38.7389L185.522 38.5615L200.282 38.4396L215.62 38.3952L222.618 38.2401L234.955 38.229L243.676 37.8743L252.089 37.0651L242.95 37.3311L255.287 36.389L267.34 35.8791L282.715 35.5133L293.896 26.2024L279.542 25.615L272.949 25.2935L256.123 24.9166L241.24 24.2294L227.268 23.8082L230.576 24.0964L232.077 24.6949L245.73 25.1605L259.924 25.6704L260.785 25.2159L276.676 25.5595L277.648 26.7123L262.654 25.6371L261.744 26.5793L277.844 26.3354L283.699 27.6877L277.008 27.6656L277.746 27.3219L268.804 27.8983L262.125 27.6545L250.76 27.6877L242.679 27.2222L234.955 27.0116L226.788 27.2L212.803 26.7123L208.941 26.3798L195.707 26.2357L188.277 25.9475L188.031 25.7036H174.293L160.689 25.5928L168.905 25.8366L180.922 25.6925L178.413 26.0251L171.23 26.4463L169.852 26.3354L156.458 26.1581L140.087 26.6901L133.703 26.5239L143.556 26.0694L147.332 25.8477L133.273 25.9586L132.092 25.493L123.236 26.1248L110.531 26.6236L96.3122 27.2L81.5648 27.9094L97.1486 26.8897L99.424 26.6347L101.736 26.2911L92.61 26.8121L79.7075 27.8762L65.9687 29.1841L51.5534 30.6251L36.9043 32.2988L22.4029 34.2164L7.60632 36.7326L20.8901 41.1331L32.5502 40.2463L18.0365 41.4767L15.1215 41.7982L30.2379 40.6343L38.9584 39.7919L37.9744 40.2574L53.0539 38.5948L67.7644 38.1625L61.0242 38.1846L71.479 37.7967L86.743 36.7548L81.4049 36.6328L81.4787 37.0208L67.543 37.6637L55.0957 38.2622L61.1226 37.3533L72.0817 36.5442L74.0496 36.3668L70.126 36.4444L63.2258 36.8434L55.0834 36.8656L55.1326 36.5774L49.6838 36.655L39.2905 37.9519L45.8217 37.1316L44.7393 36.9543L29.0079 37.974L36.7567 37.442L39.9055 36.9321L36.7198 36.788L21.9724 37.5085L33.8786 36.788L36.437 36.1562L25.3057 36.3668L14.2236 37.2536L16.2776 36.5774L27.249 35.9345L33.2267 35.9678L32.4518 35.4357L19.6724 35.9678L10.3123 36.4887L17.1755 40.6343L22.2061 39.5702L34.2353 37.7524L44.4933 36.5996L56.4364 35.5909L55.7353 35.3138L70.9378 33.8507L82.807 32.9861L77.1861 33.0747L79.0925 32.3321L66.3377 33.507L57.654 34.0834L73.0656 32.5759L81.4295 31.789L95.8694 30.9022L99.8545 30.8024L103.926 30.6694L109.473 30.2704L121.441 30.0265L128.39 29.6829L128.033 30.0044L129.226 30.1817L143.334 29.6275L151.489 29.162L166.113 29.1287L177.122 28.8183L176.765 28.9957L186.715 28.8959L175.916 28.6077L161.648 28.375L144.49 28.5634L130.973 28.8183L120.457 29.1841L115.254 29.2617L110.383 28.907L122.092 28.2974L132.707 27.5769L148.106 27.2444L161.895 27.2L168.893 27.455L160.911 27.4771L148.931 27.5326L138.304 27.6545L139.57 28.0092L147.541 27.9648L158.254 27.8983L172.128 27.9648L187.835 27.854L204.402 28.1865L215.534 28.4415L212.127 28.1754L197.281 27.7432L199.778 27.5547L206.272 27.4439L210.208 27.333L218.252 27.2444L230.466 27.4882L233.553 27.8429L243.614 28.6188L243.294 28.7518L246.074 29.3615L255.643 29.6497L266.602 29.9822L257.82 29.5499L249.53 28.9846L264.413 29.6053L274.609 29.5167L277.894 30.1706L283.182 30.6805L280.661 30.9022L273.33 30.7803L263.122 30.3591L251.707 30.0155L239.272 29.8935L227.083 29.6497L228.043 30.0709L240.146 30.5032L242.421 30.2704L256.344 30.5808L261.129 30.7914H266.91L262.138 31.2126L271.645 31.8887L277.008 32.3986L282.764 32.5538L281.251 32.6314L290.759 27.6877L284.154 27.7542L278.41 28.1976L269.702 28.1865L255.594 28.4969L248.928 28.3971L234.242 28.6188L220.65 28.5523L213.553 28.5967L207.342 28.2198L220.737 28.0757L211.598 28.0535L197.662 28.3085L195.805 28.3971L182.706 28.4082L168.573 28.6521L154.785 28.8405L150.603 28.5745L165.794 28.3306L179.975 28.1533L193.702 27.9316L207.625 27.5215L199.938 27.4771L203.812 27.1335H192.521L180.443 27.0448L164.477 27.2776L149.189 27.588L136.692 27.4771L129.066 27.9981L116.299 28.4969L110.998 28.3085L118.636 27.6766L103.987 28.1865L100.986 28.1422L116.164 27.5769L129.903 27.2887L143.568 26.6458L156.716 26.4463L171.82 25.8366L171.427 25.6593L157.208 25.8921L143.297 25.9918L128.501 26.3798L113.79 26.8786L98.8459 27.4328L83.6926 28.0868L68.6623 28.8738L53.7304 29.7605L39.0322 30.6805L24.5185 31.4232L17.5322 34.7928L24.9859 43.1948L37.9129 40.9003V40.7008L51.3566 38.4839L63.7793 37.575L48.8228 39.0271L53.2876 38.894L67.7152 37.1649L82.4012 35.7128L96.878 35.0034L111.527 34.1056H126.127L140.579 33.9393L154.957 34.0391L169.25 34.1388L183.358 34.549L197.404 35.1475L211.094 35.8126L224.722 36.4998L238.165 37.1649L246.714 37.5528L232.852 36.788L217.932 36.0121L202.619 35.2251L188.154 34.5157L174.477 33.9172L177.663 33.9393L179.545 33.7731ZM207.281 26.3909L192.275 26.7788L178.278 26.9229L186.617 26.6791L198.043 26.3576L207.281 26.3909ZM242.593 25.7258L234.315 26.3022L220.134 26.535L228.129 26.0251L242.593 25.7258ZM251.215 27.0116L254.524 26.5128L261.547 26.6347L251.634 26.9229L251.215 27.0116ZM107.812 33.1745L120.85 32.6646L137 32.2323L131.735 32.4429L116.164 32.9417L107.812 33.1745ZM208.572 31.4897L193.382 31.2237L183.247 30.9576L200.171 31.2126L211.278 31.3567L208.572 31.4897ZM127.59 31.3123L114.75 31.6892L106.14 31.9663L96.3122 32.2545L109.461 31.6559L102.253 31.7779L87.9483 32.6314L91.5153 32.1658L96.632 31.5894L113.015 30.8579L127.467 30.5142L126.102 30.7359L113.397 31.1239L123.396 30.9355L136.262 30.6583L133.396 31.0352L119.46 31.401L126.951 31.3345L127.59 31.3123ZM151.882 29.173L154.416 29.162L148.869 29.4723L142.399 29.3615L138.39 29.295L152.903 29.0844L151.882 29.173ZM180.098 29.9933L173.53 30.1485L182.103 29.9489L197.072 30.0376L182.177 29.9489L180.098 29.9933ZM155.769 29.5167L158.943 29.4058L149.09 29.8824L141.501 29.7162L155.695 29.5167H155.769ZM212.287 29.7162L199.79 29.295L192.57 29.3061L194.489 28.8294L207.133 28.9957L217.317 29.5167L212.274 29.8714L212.287 29.7162ZM63.1889 34.8926L53.7673 35.214L66.7805 34.2719L82.5979 33.2188L76.6203 33.7509L63.1889 34.8926ZM143.236 30.4256L157.073 30.1152L159.508 30.1817L144.294 30.4256H143.236ZM68.9944 34.5822L66.104 35.2695L74.7138 34.7707L66.473 35.7461L66.9035 35.5798L52.402 36.3557L49.3148 36.4001L57.5556 35.3249L58.3305 35.5909L60.9258 35.6796L68.9083 34.9148L68.9944 34.5822ZM136.139 28.5967L131.416 28.1976L124.159 28.4193L131.059 27.9648L137.135 28.242L136.139 28.5967ZM157.786 31.8111L145.278 32.2102L131.871 32.6868L135.487 32.4208L145.794 31.9885L157.786 31.8111ZM121.354 33.5514L107.37 34.416L96.8165 35.0145L85.9804 35.5576L81.7001 35.5022L94.3688 34.9923L101.921 34.6266L102.032 34.3051L115.045 33.8396L121.354 33.5514ZM107.111 34.6487L105.709 35.1697L102.216 35.3914L99.3625 35.2805L93.9752 35.4911L107.111 34.6487ZM69.1666 28.2641L74.8491 27.7764L75.5748 27.9427L70.7533 28.641L63.7178 28.8959L69.1666 28.2641ZM24.9982 33.4405L20.0045 33.9393L18.5654 33.9172L31.7138 31.9331L45.9201 30.2815L61.713 28.6853L53.8534 29.5942L53.9149 29.8159L38.4664 31.5118L33.7925 32.4762L23.6329 33.5514L24.9982 33.4405ZM49.6838 18.0997L61.9467 17.6564L67.3462 17.3127L75.9315 17.4125L75.3903 17.6785L63.7055 17.9446L61.4547 17.9556L49.6838 18.0997ZM118.034 22.0901L104.885 23.0434L91.7736 24.0521L78.5021 25.1716L64.8986 26.3909L50.4833 27.8097L35.0348 29.4945L20.0168 31.2902L34.1738 29.4723L48.6383 27.7986L63.1766 26.28L77.6411 24.9388L92.0196 23.7639L106.029 22.7884L118.034 22.0901ZM126.225 34.7152L122.092 34.9037L114.356 35.1697L128.808 34.4935L143.236 34.2386L128.919 34.6598L126.225 34.7152ZM222.938 24.8612L209.347 24.6063L194.231 24.2183L191.857 24.2072L188.29 23.9301L205.448 24.2183L220.429 24.7504L222.938 24.8612ZM87.0013 25.9364L81.3557 25.748L94.7132 25.0053L87.0874 25.8921L87.0013 25.9364ZM94.8854 25.9697L108.366 25.3046L123.765 24.7836L137.541 24.5841L135.905 24.2959L141.12 24.2294L154.416 24.1075L165.83 24.0077L162.436 23.786L167.146 23.6087L153.924 23.9412L157.257 23.5533L141.772 23.7749L143.322 23.3537L147.086 23.0655L135.401 23.2318L121.711 23.8858L117.517 23.6198L103.557 23.9412L111.81 23.4978L104.098 23.5533L93.3971 24.3181L77.2598 25.4819L63.7547 26.6236L56.6332 27.6877L67.1986 27.1113L56.1412 28.12L46.2522 29.3061L37.6054 30.2039L52.4143 28.4415L44.2473 29.0844L31.2957 30.9355L24.7153 31.9441L19.0574 32.7866L7.66781 43.0729L17.8151 43.4054L13.215 43.228L14.6664 33.64L30.1641 31.3788L44.358 29.7051L36.0557 30.7914L22.2799 32.7644L25.7977 32.3875L40.1146 30.4588L50.3234 29.295L65.9318 27.6988L80.4209 26.4906L88.7724 25.9142L105.082 25.0607L106.705 25.1383L92.0319 25.9586L92.0442 26.1692L94.8854 25.9697ZM43.6323 40.6343L35.8466 41.0555L31.2588 41.3215L45.3174 40.0579L58.1952 39.1379L41.6152 40.5345L43.6323 40.6343ZM80.7284 37.5861L91.9089 37.187L83.6188 38.1846L76.731 38.6945L70.741 38.8386L64.8617 39.0492L73.6068 38.5172L82.0691 37.5861H80.7284ZM236.025 34.7596L221.77 34.1721L207.908 33.8174L194.661 33.7066L208.646 33.7509L222.631 34.0613L236.837 34.6155L249.37 35.2029L234.377 34.7374L236.025 34.7596ZM173.382 22.988L183.394 23.4535L184.305 23.121L182.484 22.8106L165.166 22.7995L154.379 22.6776L158.254 23.2429L172.116 23.2096L173.382 22.988ZM142.608 22.6L128.353 22.7773L117.997 22.8328L112.056 23.0988L102.696 23.4202L91.2078 23.5643L119.571 22.5778L138.857 22.334L139.152 22.5446L142.608 22.6ZM52.7341 42.4854L64.3328 41.7427L61.8729 42.4965L56.0059 42.175L52.7341 42.4854ZM51.0614 40.8782L64.8002 40.069L78.3299 39.1933L75.3411 39.4372L62.9552 40.3128L51.0614 40.8782ZM44.6901 41.7982L43.9029 41.8314L39.5611 42.2415L25.2565 43.6492L27.1014 43.2613L42.9066 41.8536L44.6901 41.7982ZM167.638 21.6467L181.205 22.0125L195.743 22.7219L207.588 23.3981L194.243 22.8328L178.757 22.1012L167.638 21.6467ZM124.22 21.3031L123.814 21.1812L135.991 21.1036L138.033 21.281L124.22 21.3031ZM66.4607 24.3292L80.6054 22.7995L92.5608 22.3672L92.4132 22.5557L76.7064 23.5311L66.4607 24.3292ZM30.7299 28.3417L29.7828 28.7186L16.1915 31.0685L27.4827 28.8073L30.7299 28.3417ZM32.2181 43.6271L17.4338 45.2454L2.89551 42.9398L20.3366 44.8685L35.6252 43.1837L35.7851 43.2945L32.2181 43.6271ZM113.421 28.9514L98.4892 29.7716L85.9927 30.3923L106.767 29.1952L113.421 28.9514ZM118.39 32.2434L120.444 32.4208L105.734 33.0747L91.1463 33.895L82.4012 34.1832L98.7352 33.1745L107.603 32.7866L118.39 32.2434ZM212.262 22.9547L227.083 24.3292L228.633 24.9166L215.927 24.2405L206.42 23.132L202.152 22.6443L187.933 21.6467L173.37 21.2699L170.566 21.1147L183.677 21.2477L199.273 22.068L215.005 23.0655L214.058 23.1431L212.262 22.9547ZM165.597 23.1764L177.638 22.9104L192.459 23.387L208.265 24.4068L216.075 25.0718L219.31 25.4487L207.969 24.6506L193.394 23.8082L186.236 23.3094L172.398 23.3316L165.597 23.1764ZM258.054 36.9875L270.649 36.4887L286.368 35.9678L283.465 36.3779L275.286 36.5331L259.837 37.1316L257.894 36.6439L265.409 36.5996L258.054 36.9875Z" fill="#444444"/>
<mask id="mask1_8_1030" style="mask-type:luminance" maskUnits="userSpaceOnUse" x="83" y="4" width="205" height="21">
<path d="M83.5315 4.05058H287.878V24.9623H83.5315V4.05058Z" fill="white"/>
</mask>
<g mask="url(#mask1_8_1030)">
<path d="M113.483 21.8047L119.304 22.3104L113.852 21.6474L113.569 21.5463L119.292 21.0856L125.162 20.6473L132.493 20.2428L140.869 19.4675L155.519 18.8607L147.291 19.3326L144.774 19.6473L142.662 19.7709L128.846 20.7035L114.085 21.1417L113.483 21.8047ZM262.949 17.737L265.613 18.6359L259.068 18.4L252.928 19.018L242.391 19.2315L240.635 18.9169L236.57 18.6697L244.626 18.4337L255.494 18.1415L262.949 17.737ZM259.608 13.9951L271.348 13.4445L274.836 13.5344L259.878 13.9951H259.608ZM275.389 12.804L264.582 12.5681L253.026 12.8378L263.415 12.3546L275.475 12.5231L275.389 12.804ZM263.747 11.9388L274.726 11.6579H277.489L263.292 12.1523L260.603 11.9276L263.747 11.9388ZM233.598 14.2985L237.798 14.5345L242.87 14.3884L241.875 15.0065L230.295 15.0514L227.348 14.6806L233.598 14.2985ZM281.418 10.1522L285.164 20.0293L280.583 20.8721L279.945 20.3327L281.418 10.1522ZM230.344 12.5231L236.104 12.9052L230.725 14.085L225.555 13.8828L223.897 14.4783L217.818 14.9503L212.022 14.9952L215.976 14.6019L213.139 14.2424L202.234 14.5345L188.222 15.0402L188.284 14.5233L182.942 13.9614L168.23 14.7592L154.095 15.8717L140.206 18.2876L126.23 20.9282L112.648 21.3777L113.704 22.9284L128.601 22.1418L142.711 22.1755L151.749 22.3441L165.896 22.6025L180.203 22.4227L194.055 22.2991L206.741 22.2542L217.474 22.2767L222.423 22.0744L235.526 22.0182L236.951 21.8384L250.705 21.9283L261.278 22.198L257.545 21.7148L271.913 21.9058L262.322 21.4227L250.091 21.1417L264.692 21.2766L264.828 20.8721L263.587 20.4338L251.724 20.1754L237.565 20.108L237.995 19.9731L231.019 19.3551L228.097 19.636L215.939 19.6135L202.492 19.4L189.094 19.5798L177.907 19.4675L193.306 19.2764L195.111 18.973L210.573 18.8944L193.331 18.9169L183.236 18.9281L192.717 18.5798L202.701 18.4786L189.634 18.4224L183.666 18.2764L191.268 18.0629L194.657 17.8831L180.068 17.8157L178.41 17.5235L163.6 17.7482L152.142 18.7034L150.435 18.8607L139.985 19.3551L139.739 19.4787L125.101 20.6136L124.425 20.5799L117.831 20.9957L113.054 21.4002L114.711 23.052L129.779 22.0182L134.397 22.6362L148.458 23.5914L145.118 23.8611L160.653 24.142L172.958 23.8835L186.257 22.8722L177.673 22.8834L188.541 22.198L187.768 21.5912L196.941 21.2092L202.676 20.3889L189.34 20.8945L185.692 20.9282L201.301 20.0181L213.397 19.2877L223.406 18.6697L228.784 19.3551L215.927 19.9394L219.144 20.2091L224.462 20.4563L214.515 20.8384L204.334 21.2429L214.871 21.1867L218.076 22.007L232.591 21.7935L243.177 21.2766L252.277 20.6249L265.785 20.8271L277.12 21.0968L263.673 21.3215L275.278 21.4788L282.757 9.32064L273.51 7.87109L259.387 6.26423L244.417 5.05066L231.707 4.25284L217.106 4.02811L224.339 4.18542L223.688 4.61242L230 5.12931L243.275 5.9496L255.151 7.05081L263.022 7.51151L272.036 8.30933L283.432 10.0735L278.189 9.86L271.594 9.50043L269.654 8.87117L258.528 7.83738L256.059 7.61264L247.009 7.05081L236.533 6.34289L223.369 5.87094L212.304 6.17434L208.276 6.76988L194.362 6.82607L181.603 6.54515L180.78 7.17441L190.457 7.46657L187.08 7.97222L193.736 8.51159L188.247 8.85993L181.063 9.14085L169.666 8.89364L162.445 8.71385L163.035 8.7588L159.056 9.27569L149.735 9.07343L147.218 8.53406L138.192 8.69138L138.29 8.35427L131.29 8.46664L117.082 8.84869L102.566 9.01724L103.352 8.7588L95.2469 9.28693L88.3207 9.11838L86.4172 10.0623L90.5066 10.0398L90.3593 10.5679L95.2592 11.0511L97.396 11.1298L99.631 11.4556L98.5503 11.995L107.441 12.5119L100.81 12.8265L111.936 13.085L120.852 12.8715L130.59 12.4782L128.822 11.8714L131.4 11.5343L139.125 11.6017L147.807 11.377L153.554 11.5455L161.623 11.4556L157.939 10.9163L144.467 10.8826L145.781 10.2196L159.019 9.74764L150.828 10.1409L155.126 10.5005L170.477 10.4556L167.468 10.2533L173.326 9.44424L182.057 9.92743L185.508 10.6578L184.71 10.2645L192.827 10.4893L191.255 11.3095L178.963 11.1522L183.064 11.5568L190.469 11.2421L192.913 12.186L200.429 12.4445L208.473 12.6917L220.335 13.3097L221.748 13.7592L229.177 14.2199L243.238 14.8604L232.174 14.5907L227.9 15.0963L238.535 15.7031L250.03 16.265L253.689 16.9392L251.294 16.9841L238.302 16.5908L244.847 17.2313L259.449 18.3663L274.026 19.8495L279.896 10.6915L272.65 11.3994L271.041 11.1522L256.121 11.3994L241.433 11.6579L227.028 12.0287L213.25 12.6804L217.548 12.5456L232.063 12.231L230.344 12.5231ZM146.628 12.658L137.811 12.4782L132.936 12.3096L144.921 12.0399L144.307 12.2534L144.172 12.5793L146.628 12.658ZM89.5487 12.0399L91.1329 11.141L95.689 11.5343L90.9856 11.8602L89.5487 12.0399ZM114.589 8.55654L117.425 8.15201L122.46 8.28685L115.706 8.51159L114.589 8.55654ZM239.112 19.0068L252.351 19.0405L267.259 18.8157L258.233 19.2877L243.803 19.0517L239.112 19.0068ZM136.313 7.68007L150.693 7.59017L155.888 7.45533L156.71 7.07328L151.283 6.69123L144.946 6.81483L140.832 6.30918L129.092 6.51144L125.506 7.05081L122.141 7.21936L114.662 7.38791L105.108 7.44409L117.953 7.52275L112.759 7.87109L126.132 7.55646L139.223 7.33173L135.809 7.62388L136.313 7.68007ZM209.566 18.7371L209.05 18.2202L218.96 18.7146L215.841 18.8045L209.566 18.7371Z" fill="#444444"/>
</g>
<path d="M229.642 36.7329L235.931 37.4054L226.76 37.0475L224.77 36.7654L216.393 36.6569L210.641 36.3966L223.732 30.9943L218.664 31.9164L213.767 32.4371L220.936 36.2122L229.642 36.7329ZM212.693 45.0424L214.28 44.2179L216.552 44.0878H227.054L233.245 44.2613L225.112 44.5108L216.625 44.858L212.693 45.0424ZM203.729 49.1321L214.756 49.3707L215.257 49.8155L202.679 49.349L203.729 49.1321ZM212.033 50.2385L205.793 50.065L209.518 49.9673L213.486 50.3145L212.033 50.2385ZM234.051 48.4486L227.859 48.0907L224.978 47.7218L236.615 47.7652L238.361 48.351L234.051 48.4486ZM236.542 49.9565L233.538 48.9476L236.896 48.7307L240.364 48.1883L248.082 47.6133L247.886 48.2534L249.914 49.4683L262.467 49.0453L266.131 49.3924L275.179 49.0561L266.277 34.2379L252.026 34.444L237.787 34.8236L233.318 34.6067L218.835 33.4351L215.294 36.798L227.554 36.7003L242.098 36.2881L253.736 36.0603L266.277 36.2556L273.164 36.1037L277.182 35.6372L287.598 32.6215L276.4 33.9124L275.179 34.4982L277.829 34.4114L284.069 34.2487L273.177 35.4854L277.475 35.8759L289.552 33.587L280.369 32.947L276.767 32.1334L270.954 32.5564L258.425 32.3503H245.395L245.493 32.1334L252.551 31.9164L257.778 31.5367L245.456 31.4065L249.73 31.1137L254.688 30.7231L245.627 30.734L249.572 30.4194L246.751 29.9963L241.597 29.8444L226.968 30.1265L215.501 31.5801L212.4 31.7754L212.778 36.7654L224.758 37.2536L227.31 37.4163L227.701 37.6875L238.813 38.7831L246.397 39.5316L252.27 40.4754L262.247 43.144L273.372 44.6519L269.66 40.291L268.463 40.7249L266.179 41.7555L260.586 42.6341L265.41 42.5799L266.802 42.6124L252.051 43.6538L242.135 44.6085L239.485 44.0552L242.55 43.5128L240.804 43.0681L250.793 42.3955L250.243 42.2219L244.663 41.7338L232.28 42.0267L222.706 42.5148L208.748 42.1568L207.417 41.929L205.378 41.5277L193.997 40.6164L180.93 40.1717L166.252 39.6618L153.515 39.2713L148.252 39.3581L151.354 39.7269L159.401 40.3995L172.529 40.5622L180.271 40.7358L188.612 41.1697L191.017 41.4626L183.556 41.8531L180.002 41.5927L175.521 41.2673L165.471 41.3758L153.711 41.1805L142.379 41.289L136.09 41.7663L146.75 46.4743L150.084 45.7258L140.632 46.0295L139.155 45.639L145.786 44.3156L155.384 43.1874L162.186 43.1223L162.393 42.6667L171.967 41.647L174.812 42.2111L184.557 41.4517L183.092 42.0267L196.805 40.4212L206.538 39.8788L209.689 39.4123L218.505 39.3472L214.634 38.7072L217.064 38.1214L211.887 37.5248L208.113 37.4488L208.797 36.6569L205.463 35.9627L204.413 35.5505L193.899 36.3098L186.084 37.3295L189.015 37.8828L180.222 38.5228L176.107 38.5879L164.372 40.3018L167.498 40.4103L179.087 39.5316L167.876 41.4734L172.749 40.7249L163.431 41.1154L158.339 41.8097L154.395 42.7535L147.813 42.4823L147.385 42.6124L139.289 42.8728L148.594 41.9182L148.619 41.3541L143.832 41.7338L137.396 41.7989L140.815 48.0256L151.855 48.3944L154.346 48.4703L165.764 48.8283L151.684 49.2731L160.733 49.7721L173.005 49.5985L175.838 50.2711L162.051 50.5206L170.233 50.8135L185.095 50.9111L199.48 50.9003L209.86 50.6508L215.147 50.7484L229.63 50.6399L243.82 50.2277L247.593 49.9456L235.223 50.1301L236.542 49.9565ZM174.825 37.796L178.513 37.7092L179.465 38.1323L175.716 38.1214L174.825 37.796ZM284.179 31.5584L282.213 37.1668L278.452 37.2427L286.817 31.591L284.179 31.5584ZM182.835 42.6016L174.434 43.6538L165.519 44.3915L171.992 44.3698L178.964 44.0769L185.852 43.6972L191.591 42.504L195.438 42.3955L204.279 41.6795L194.168 42.005L194.766 41.6361L181.443 43.0789L182.835 42.6016Z" fill="#444444"/>
<path d="M44.5647 51.8958L37.387 52.6899L40.3716 51.9866L50.4968 50.0582L46.9819 50.0128L55.0599 49.4116L60.7453 48.2999L67.1584 48.1638L74.8293 46.882L89.7273 46.0085L89.197 46.19L86.7798 46.7685L79.0472 47.3584L75.0883 48.1751L60.77 49.7632L46.4146 51.6576L44.5647 51.8958ZM179.362 36.8883L175.132 35.493L178.77 39.1116L175.502 39.5654L164.6 40.7111L164.575 40.5522L154.043 41.1421L152.908 41.0627L162.787 40.2119L170.248 39.4519L179.362 36.8883ZM178.733 34.8918L171.716 39.9397L161.405 38.4877L174.725 40.0078L178.733 34.8918ZM164.624 39.6561L175.28 41.1761L175.268 34.0524L176.094 33.6553L170.137 40.9946L163.083 40.2913L164.624 39.6561ZM177.389 42.2765L165.019 41.006L161.516 40.4161L171.679 41.335L176.279 33.4625L175.896 42.2198L177.389 42.2765ZM148.296 37.3307L150.923 37.4101L158.791 37.1719L164.23 36.5707L150.368 37.8184L140.366 38.8053L139.502 38.5785L148.296 37.3307ZM148.431 29.4355L156.731 29.7645L158.606 30.1842L167.856 32.0559L153.303 30.275L148.431 29.4355ZM144.386 36.0715L150.158 35.9241L149.714 36.9336L142.573 37.5235L136.555 38.1361L134.187 38.9868L129.525 39.3385L124.136 39.8149L126.405 39.1683L126.22 39.123L114.615 40.1552L104.342 41.4144L90.936 43.218L95.8937 41.8794L87.9144 42.5374L73.2261 44.7607L59.0927 46.9047L45.206 48.6402L31.4426 50.943L34.9945 59.6889L40.5689 58.4638L47.7959 57.1706L62.4349 55.367L77.3946 54.0284L84.5969 53.7108L98.9646 52.9054L112.913 52.2475L127.823 51.8051L141.476 51.2266L136.148 44.375L126.047 45.5094L122.446 46.1787L108.202 48.1525L110.681 48.3226L96.3254 50.0241L85.1889 51.4875L72.5478 52.9394L79.1828 52.7353L64.7658 54.0625L66.924 54.0284L82.044 52.6445L80.8107 53.1663L65.9744 54.607L72.4121 54.4935L71.6598 55.2082L83.1416 54.2666L96.6954 52.6105L108.72 51.2833L101.616 52.5084L113.406 51.4194L115.491 50.7842L127.379 49.2755L140.822 48.2432L136.308 46.9954L125.073 47.0521L128.785 46.6664L142.66 46.3148L142.623 45.9745L137.246 49.457L138.442 45.9178L128.662 45.8951L131.128 45.4527L144.806 49.3208L143.437 44.7721L128.267 45.2372L123.963 44.9536L134.668 44.5338L140.908 44.0007L126.59 44.2616L126.738 43.978L113.024 43.6604L98.0396 44.4544L87.7171 45.793L87.8158 45.43L76.6546 46.3488L78.4059 46.4849L64.4821 47.8008L51.1504 49.1847L51.3724 48.8217L47.7466 49.5591L43.8001 49.5931L40.4826 49.82L26.1642 52.1908L35.5741 59.1784L43.3931 57.9647L43.5781 58.1008L51.9767 57.647L66.0237 54.9813L78.6402 53.3932L92.8475 51.0451L87.6678 51.3967L93.5012 50.1376L98.7179 49.1393L100.667 48.1071L103.639 47.8802L112.617 46.0652L99.5196 47.8802L89.4437 49.3435L104.527 46.8933L118.734 44.7947L127.589 43.4335L140.785 41.9702L141.735 42.526L129.34 44.0234L132.719 43.8646L141.636 43.3768L135.235 44.1595L121.978 45.5434L115.589 46.7912L128.477 45.1237L130.401 45.8951L145.57 44.5906L155.362 43.5923L164.846 42.3332L176.723 41.4257L171.654 32.4302L166.536 31.4093L179.522 33.3264L168.583 31.3866L154.351 29.0499L144.991 27.8701L131.881 26.4068L117.168 25.1703L101.912 24.3196L89.9 23.7864L75.0513 23.5142L78.9608 23.6503L76.7163 24.002L83.376 24.6826L95.1538 25.1136L108.313 25.6468L120.572 26.4408L126.516 26.9399L135.198 27.4731L145.681 28.528L148.024 29.5717L145.62 29.6511L132.3 28.46L132.226 27.9722L121.706 27.2122L121.386 26.9853L112.987 26.8265L101.024 26.2253L88.5434 25.9304L76.3463 25.6808L68.1696 26.3047L62.6199 26.7584L48.6469 27.5412L36.1167 28.0062L30.4067 28.3919L39.9029 28.5621L47.6356 28.6528L43.8247 29.1406L45.021 29.6851L41.0005 30.3317L32.2443 31.103L22.378 31.5681L14.4111 32.9634L23.6853 32.4529L15.6443 32.6344L22.6864 31.9311L31.5043 31.2732L33.6009 31.7269L40.5689 31.0463L48.5482 30.6493L45.3293 31.432L57.9951 29.6511L72.6341 28.2785L87.2115 27.1214L83.9556 27.6773L90.6276 26.7017L100.321 26.1686L106.685 25.4086L98.5699 25.6014L102.455 25.159L99.2852 25.0456L95.1168 24.4103L91.2319 24.8641L90.6646 24.5578L84.1283 24.4444L86.4222 23.4234L84.3133 23.3894L86.4098 22.8222L74.7554 23.4575L66.9734 24.3082L57.7854 25.0115L54.5913 25.4426L60.585 25.7035L47.4506 26.9059L41.0499 27.3597L32.8362 28.1424L28.5321 28.3239L17.3956 29.8893L15.558 30.1275L30.9986 29.0385L39.8043 28.4146L33.5885 30.0821L19.7635 31.2845L29.6914 30.0141L27.3235 29.7532L13.0298 33.2016L24.2773 33.0655L20.5281 32.9294L25.7819 32.1353L34.4025 32.1467L37.3254 32.6911L38.5216 32.4983L45.8226 31.7496L48.0302 32.4756L38.2257 32.9067L27.4098 34.2906L35.4384 33.5759L42.4681 33.1222L46.057 34.1545L51.7547 33.6553L59.4257 33.4739L69.7606 33.6894L80.9587 33.9049L80.3051 34.3927L89.2217 34.4721L103.552 34.767H94.2288L84.5229 34.9825L91.6513 35.3682L105.834 35.8787L116.613 36.4118L119.967 37.1038L114.344 37.0131L100.926 36.6387L101.764 37.1492L116.304 37.8184L131.178 38.7032L145.78 39.7922L159.728 41.1194L168.312 41.5051L167.658 41.7774L178.548 32.4302L163.477 33.7234L148.9 35.062L134.816 36.5253L121.213 38.034L130.882 37.0698L145.546 35.6972L144.386 36.0715ZM34.6368 26.4181L46.4146 25.4426L46.8093 25.7489L44.5894 26.4408L35.4261 26.974L32.7869 26.9853L36.8691 26.248L34.6368 26.4181ZM101.061 23.1739L100.987 23.9112L92.6749 24.4444L98.7303 23.5936L101.061 23.1739ZM120.325 23.5255L108.855 24.4103L111.112 24.002L119.449 23.6163L120.325 23.5255ZM72.3505 28.6415L70.6485 29.2654L59.1297 30.275L69.1686 29.0272L72.3505 28.6415ZM99.9266 53.881L87.0018 55.5712L72.6588 56.8984L71.0925 56.921L85.7439 55.4918L99.4826 53.9377L99.9266 53.881ZM47.2779 31.8404L33.1199 32.9974L27.7305 33.7121L21.1941 34.4154L24.9556 34.3586L29.0624 34.3473L36.6224 34.1318L42.8381 33.9163L54.1226 32.7819L57.1935 31.9311L67.701 30.3544L66.8624 30.6493L74.9033 29.6397L81.9454 28.8797L67.1954 30.2069L74.9773 29.1973L62.3609 30.5245L49.8925 31.9992L46.7353 32.1126L47.2779 31.8404ZM161.997 23.5709L147.654 23.5822L159.815 23.4234L161.652 23.5709H161.997ZM134.125 49.8767L134.754 50.5006L127.873 50.648L120.152 51.3854L135.334 49.7179L134.125 49.8767ZM117.464 53.1663L131.449 51.3513L134.594 51.3627L123.482 52.4403L117.464 53.1663Z" fill="#444444"/>
</g>
<defs>
<clipPath id="clip0_8_1030">
<rect width="291" height="79" fill="white"/>
</clipPath>
</defs>
</svg>
