<svg xmlns="http://www.w3.org/2000/svg" xmlns:xlink="http://www.w3.org/1999/xlink" width="500" zoomAndPan="magnify" viewBox="0 0 375 374.999991" height="500" preserveAspectRatio="xMidYMid meet" version="1.0"><path stroke-linecap="round" transform="matrix(0.127683, -0.739051, 0.739051, 0.127683, 307.785042, 325.640076)" fill="none" stroke-linejoin="miter" d="M 2.004538 2.000597 C 5.111887 1.997586 8.21499 2.000594 11.323226 2.002716 " stroke="#fffaf2" stroke-width="4" stroke-opacity="1" stroke-miterlimit="4"/><path fill="#ffffff" d="M 187.554688 45.140625 L 217.277344 0 L 231.582031 52.101562 L 273.757812 18.355469 L 271.285156 72.335938 L 321.835938 53.273438 L 302.773438 103.851562 L 356.753906 101.351562 L 323.003906 143.554688 L 375.109375 157.859375 L 329.96875 187.554688 L 375.109375 217.277344 L 323.003906 231.582031 L 356.753906 273.757812 L 302.773438 271.285156 L 321.835938 321.835938 L 271.285156 302.773438 L 273.757812 356.753906 L 231.582031 323.003906 L 217.277344 375.109375 L 187.554688 329.96875 L 157.859375 375.109375 L 143.554688 323.003906 L 101.351562 356.753906 L 103.851562 302.773438 L 53.273438 321.835938 L 72.335938 271.285156 L 18.355469 273.757812 L 52.101562 231.582031 L 0 217.277344 L 45.140625 187.554688 L 0 157.859375 L 52.101562 143.554688 L 18.355469 101.351562 L 72.335938 103.851562 L 53.273438 53.273438 L 103.851562 72.335938 L 101.351562 18.355469 L 143.554688 52.101562 L 157.859375 0 Z M 187.554688 45.140625 " fill-opacity="1" fill-rule="nonzero"/></svg>