<svg width="46" height="71" viewBox="0 0 46 71" fill="none" xmlns="http://www.w3.org/2000/svg">
<mask id="mask0_16_227" style="mask-type:luminance" maskUnits="userSpaceOnUse" x="7" y="39" width="39" height="19">
<path d="M7 39H45.6667V57.6667H7V39Z" fill="white"/>
</mask>
<g mask="url(#mask0_16_227)">
<mask id="mask1_16_227" style="mask-type:luminance" maskUnits="userSpaceOnUse" x="-3" y="-8" width="54" height="83">
<path d="M-2.9375 -3.06771L43.8385 -7.23438L50.7552 70.3854L3.97917 74.5573L-2.9375 -3.06771Z" fill="white"/>
</mask>
<g mask="url(#mask1_16_227)">
<mask id="mask2_16_227" style="mask-type:luminance" maskUnits="userSpaceOnUse" x="-3" y="-8" width="54" height="83">
<path d="M-2.9375 -3.06771L43.8385 -7.23438L50.7552 70.3854L3.97917 74.5573L-2.9375 -3.06771Z" fill="white"/>
</mask>
<g mask="url(#mask2_16_227)">
<mask id="mask3_16_227" style="mask-type:luminance" maskUnits="userSpaceOnUse" x="-3" y="-8" width="54" height="83">
<path d="M-2.9375 -3.06771L43.8385 -7.23438L50.7552 70.3854L3.97917 74.5573L-2.9375 -3.06771Z" fill="white"/>
</mask>
<g mask="url(#mask3_16_227)">
<path d="M43.0625 43.9791C36.2031 36.7812 16.2656 38.1718 7.47397 45.3593C7.47397 45.3593 18.1198 46.1093 30.2656 54.9791C40.6927 62.5937 48.9531 50.1562 43.0625 43.9791ZM42.1667 52.052C42.9271 46.8229 39.6875 44.3489 35.6302 43.8541C35.6302 43.8541 39.1302 42.4895 41.6719 44.8385C44.7917 47.7291 42.1667 52.052 42.1667 52.052Z" fill="#5EACD6"/>
</g>
</g>
</g>
</g>
<mask id="mask4_16_227" style="mask-type:luminance" maskUnits="userSpaceOnUse" x="0" y="0" width="35" height="71">
<path d="M0.333344 0.333374H35V71H0.333344V0.333374Z" fill="white"/>
</mask>
<g mask="url(#mask4_16_227)">
<mask id="mask5_16_227" style="mask-type:luminance" maskUnits="userSpaceOnUse" x="-3" y="-8" width="54" height="83">
<path d="M-2.9375 -3.06771L43.8385 -7.23438L50.7552 70.3854L3.97917 74.5573L-2.9375 -3.06771Z" fill="white"/>
</mask>
<g mask="url(#mask5_16_227)">
<mask id="mask6_16_227" style="mask-type:luminance" maskUnits="userSpaceOnUse" x="-3" y="-8" width="54" height="83">
<path d="M-2.9375 -3.06771L43.8385 -7.23438L50.7552 70.3854L3.97917 74.5573L-2.9375 -3.06771Z" fill="white"/>
</mask>
<g mask="url(#mask6_16_227)">
<mask id="mask7_16_227" style="mask-type:luminance" maskUnits="userSpaceOnUse" x="-3" y="-8" width="54" height="83">
<path d="M-2.9375 -3.06771L43.8385 -7.23438L50.7552 70.3854L3.97917 74.5573L-2.9375 -3.06771Z" fill="white"/>
</mask>
<g mask="url(#mask7_16_227)">
<path d="M3.77605 51.4479C3.77605 51.4479 9.09897 56.0313 12.0469 65.4844C14.5729 73.6042 23.7865 70.3021 23.0938 64.7292C22.2813 58.2344 11.224 51.1198 3.77605 51.4479ZM13.3073 11.2084C9.91147 29.8125 0.880219 39.7344 0.880219 39.7344C15.0677 38.6407 34.3958 22.599 34.4271 10.099C34.4531 -0.63018 16.224 -4.7656 13.3073 11.2084Z" fill="#74C5E8"/>
</g>
</g>
</g>
</g>
<mask id="mask8_16_227" style="mask-type:luminance" maskUnits="userSpaceOnUse" x="17" y="3" width="28" height="67">
<path d="M17.6667 3H44.3333V69.6667H17.6667V3Z" fill="white"/>
</mask>
<g mask="url(#mask8_16_227)">
<mask id="mask9_16_227" style="mask-type:luminance" maskUnits="userSpaceOnUse" x="-3" y="-8" width="54" height="83">
<path d="M-2.9375 -3.06771L43.8385 -7.23438L50.7552 70.3854L3.97917 74.5573L-2.9375 -3.06771Z" fill="white"/>
</mask>
<g mask="url(#mask9_16_227)">
<mask id="mask10_16_227" style="mask-type:luminance" maskUnits="userSpaceOnUse" x="-3" y="-8" width="54" height="83">
<path d="M-2.9375 -3.06771L43.8385 -7.23438L50.7552 70.3854L3.97917 74.5573L-2.9375 -3.06771Z" fill="white"/>
</mask>
<g mask="url(#mask10_16_227)">
<mask id="mask11_16_227" style="mask-type:luminance" maskUnits="userSpaceOnUse" x="-3" y="-8" width="54" height="83">
<path d="M-2.9375 -3.06771L43.8385 -7.23438L50.7552 70.3854L3.97917 74.5573L-2.9375 -3.06771Z" fill="white"/>
</mask>
<g mask="url(#mask11_16_227)">
<path d="M41.6719 44.8385C39.1302 42.4895 35.6302 43.8541 35.6302 43.8541C39.6875 44.3489 42.9271 46.8229 42.1667 52.052C42.1667 52.052 44.7917 47.7291 41.6719 44.8385ZM26.25 4.04163C31.6146 7.91663 31.0052 13.0104 27.9115 17.1093C27.9115 17.1093 32.1979 15.1354 32.3021 10.7864C32.4271 5.44267 26.25 4.04163 26.25 4.04163ZM19.6875 61.8177C21.0521 64.1406 21.0573 66.8229 18.0312 68.5052C18.0312 68.5052 21.3281 68.1614 21.5885 65.375C21.7969 63.1093 19.6875 61.8177 19.6875 61.8177Z" fill="#A4E6F0"/>
</g>
</g>
</g>
</g>
</svg>
